<?xml version="1.0" encoding="UTF-8" standalone="no"?>
<!DOCTYPE svg PUBLIC "-//W3C//DTD SVG 1.1//EN"
 "http://www.w3.org/Graphics/SVG/1.1/DTD/svg11.dtd">
<!-- Generated by graphviz version 2.50.0 (20211204.2007)
 -->
<!-- Title: Tree Pages: 1 -->
<svg width="1102pt" height="433pt"
 viewBox="0.00 0.00 1102.00 433.00" xmlns="http://www.w3.org/2000/svg" xmlns:xlink="http://www.w3.org/1999/xlink">
<g id="graph0" class="graph" transform="scale(1 1) rotate(0) translate(4 429)">
<title>Tree</title>
<polygon fill="white" stroke="transparent" points="-4,4 -4,-429 1098,-429 1098,4 -4,4"/>
<!-- 0 -->
<g id="node1" class="node">
<title>0</title>
<path fill="#eeae80" stroke="black" d="M588.5,-425C588.5,-425 406.5,-425 406.5,-425 400.5,-425 394.5,-419 394.5,-413 394.5,-413 394.5,-354 394.5,-354 394.5,-348 400.5,-342 406.5,-342 406.5,-342 588.5,-342 588.5,-342 594.5,-342 600.5,-348 600.5,-354 600.5,-354 600.5,-413 600.5,-413 600.5,-419 594.5,-425 588.5,-425"/>
<text text-anchor="start" x="402.5" y="-409.8" font-family="Helvetica,sans-Serif" font-size="14.00">Contract_Month&#45;to&#45;month ≤ 0.5</text>
<text text-anchor="start" x="462" y="-394.8" font-family="Helvetica,sans-Serif" font-size="14.00">gini = 0.389</text>
<text text-anchor="start" x="449" y="-379.8" font-family="Helvetica,sans-Serif" font-size="14.00">samples = 5274</text>
<text text-anchor="start" x="435.5" y="-364.8" font-family="Helvetica,sans-Serif" font-size="14.00">value = [3882, 1392]</text>
<text text-anchor="start" x="466.5" y="-349.8" font-family="Helvetica,sans-Serif" font-size="14.00">class = no</text>
</g>
<!-- 1 -->
<g id="node2" class="node">
<title>1</title>
<path fill="#e78a47" stroke="black" d="M458.5,-306C458.5,-306 310.5,-306 310.5,-306 304.5,-306 298.5,-300 298.5,-294 298.5,-294 298.5,-235 298.5,-235 298.5,-229 304.5,-223 310.5,-223 310.5,-223 458.5,-223 458.5,-223 464.5,-223 470.5,-229 470.5,-235 470.5,-235 470.5,-294 470.5,-294 470.5,-300 464.5,-306 458.5,-306"/>
<text text-anchor="start" x="306.5" y="-290.8" font-family="Helvetica,sans-Serif" font-size="14.00">MonthlyCharges ≤ 93.675</text>
<text text-anchor="start" x="349" y="-275.8" font-family="Helvetica,sans-Serif" font-size="14.00">gini = 0.125</text>
<text text-anchor="start" x="336" y="-260.8" font-family="Helvetica,sans-Serif" font-size="14.00">samples = 2388</text>
<text text-anchor="start" x="326.5" y="-245.8" font-family="Helvetica,sans-Serif" font-size="14.00">value = [2228, 160]</text>
<text text-anchor="start" x="353.5" y="-230.8" font-family="Helvetica,sans-Serif" font-size="14.00">class = no</text>
</g>
<!-- 0&#45;&gt;1 -->
<g id="edge1" class="edge">
<title>0&#45;&gt;1</title>
<path fill="none" stroke="black" d="M458.3,-341.91C449.44,-332.74 439.96,-322.93 430.85,-313.49"/>
<polygon fill="black" stroke="black" points="433.1,-310.78 423.64,-306.02 428.07,-315.65 433.1,-310.78"/>
<text text-anchor="middle" x="423.2" y="-327.32" font-family="Helvetica,sans-Serif" font-size="14.00">True</text>
</g>
<!-- 8 -->
<g id="node9" class="node">
<title>8</title>
<path fill="#f8dfcc" stroke="black" d="M767.5,-306C767.5,-306 579.5,-306 579.5,-306 573.5,-306 567.5,-300 567.5,-294 567.5,-294 567.5,-235 567.5,-235 567.5,-229 573.5,-223 579.5,-223 579.5,-223 767.5,-223 767.5,-223 773.5,-223 779.5,-229 779.5,-235 779.5,-235 779.5,-294 779.5,-294 779.5,-300 773.5,-306 767.5,-306"/>
<text text-anchor="start" x="575.5" y="-290.8" font-family="Helvetica,sans-Serif" font-size="14.00">InternetService_Fiber optic ≤ 0.5</text>
<text text-anchor="start" x="638" y="-275.8" font-family="Helvetica,sans-Serif" font-size="14.00">gini = 0.489</text>
<text text-anchor="start" x="625" y="-260.8" font-family="Helvetica,sans-Serif" font-size="14.00">samples = 2886</text>
<text text-anchor="start" x="611.5" y="-245.8" font-family="Helvetica,sans-Serif" font-size="14.00">value = [1654, 1232]</text>
<text text-anchor="start" x="642.5" y="-230.8" font-family="Helvetica,sans-Serif" font-size="14.00">class = no</text>
</g>
<!-- 0&#45;&gt;8 -->
<g id="edge8" class="edge">
<title>0&#45;&gt;8</title>
<path fill="none" stroke="black" d="M558.56,-341.91C573.17,-332.2 588.87,-321.76 603.84,-311.81"/>
<polygon fill="black" stroke="black" points="606.16,-314.47 612.55,-306.02 602.28,-308.64 606.16,-314.47"/>
<text text-anchor="middle" x="607.61" y="-326.83" font-family="Helvetica,sans-Serif" font-size="14.00">False</text>
</g>
<!-- 2 -->
<g id="node3" class="node">
<title>2</title>
<path fill="#e68641" stroke="black" d="M264,-187C264,-187 123,-187 123,-187 117,-187 111,-181 111,-175 111,-175 111,-116 111,-116 111,-110 117,-104 123,-104 123,-104 264,-104 264,-104 270,-104 276,-110 276,-116 276,-116 276,-175 276,-175 276,-181 270,-187 264,-187"/>
<text text-anchor="start" x="119" y="-171.8" font-family="Helvetica,sans-Serif" font-size="14.00">Contract_One year ≤ 0.5</text>
<text text-anchor="start" x="158" y="-156.8" font-family="Helvetica,sans-Serif" font-size="14.00">gini = 0.075</text>
<text text-anchor="start" x="145" y="-141.8" font-family="Helvetica,sans-Serif" font-size="14.00">samples = 1771</text>
<text text-anchor="start" x="139" y="-126.8" font-family="Helvetica,sans-Serif" font-size="14.00">value = [1702, 69]</text>
<text text-anchor="start" x="162.5" y="-111.8" font-family="Helvetica,sans-Serif" font-size="14.00">class = no</text>
</g>
<!-- 1&#45;&gt;2 -->
<g id="edge2" class="edge">
<title>1&#45;&gt;2</title>
<path fill="none" stroke="black" d="M318.23,-222.91C302.09,-213.02 284.7,-202.37 268.19,-192.25"/>
<polygon fill="black" stroke="black" points="270,-189.26 259.65,-187.02 266.35,-195.23 270,-189.26"/>
</g>
<!-- 5 -->
<g id="node6" class="node">
<title>5</title>
<path fill="#e9975b" stroke="black" d="M454.5,-187C454.5,-187 314.5,-187 314.5,-187 308.5,-187 302.5,-181 302.5,-175 302.5,-175 302.5,-116 302.5,-116 302.5,-110 308.5,-104 314.5,-104 314.5,-104 454.5,-104 454.5,-104 460.5,-104 466.5,-110 466.5,-116 466.5,-116 466.5,-175 466.5,-175 466.5,-181 460.5,-187 454.5,-187"/>
<text text-anchor="start" x="310.5" y="-171.8" font-family="Helvetica,sans-Serif" font-size="14.00">Contract_Two year ≤ 0.5</text>
<text text-anchor="start" x="349" y="-156.8" font-family="Helvetica,sans-Serif" font-size="14.00">gini = 0.251</text>
<text text-anchor="start" x="339.5" y="-141.8" font-family="Helvetica,sans-Serif" font-size="14.00">samples = 617</text>
<text text-anchor="start" x="334" y="-126.8" font-family="Helvetica,sans-Serif" font-size="14.00">value = [526, 91]</text>
<text text-anchor="start" x="353.5" y="-111.8" font-family="Helvetica,sans-Serif" font-size="14.00">class = no</text>
</g>
<!-- 1&#45;&gt;5 -->
<g id="edge5" class="edge">
<title>1&#45;&gt;5</title>
<path fill="none" stroke="black" d="M384.5,-222.91C384.5,-214.65 384.5,-205.86 384.5,-197.3"/>
<polygon fill="black" stroke="black" points="388,-197.02 384.5,-187.02 381,-197.02 388,-197.02"/>
</g>
<!-- 3 -->
<g id="node4" class="node">
<title>3</title>
<path fill="#e5823b" stroke="black" d="M105,-68C105,-68 12,-68 12,-68 6,-68 0,-62 0,-56 0,-56 0,-12 0,-12 0,-6 6,0 12,0 12,0 105,0 105,0 111,0 117,-6 117,-12 117,-12 117,-56 117,-56 117,-62 111,-68 105,-68"/>
<text text-anchor="start" x="23" y="-52.8" font-family="Helvetica,sans-Serif" font-size="14.00">gini = 0.023</text>
<text text-anchor="start" x="13.5" y="-37.8" font-family="Helvetica,sans-Serif" font-size="14.00">samples = 964</text>
<text text-anchor="start" x="8" y="-22.8" font-family="Helvetica,sans-Serif" font-size="14.00">value = [953, 11]</text>
<text text-anchor="start" x="27.5" y="-7.8" font-family="Helvetica,sans-Serif" font-size="14.00">class = no</text>
</g>
<!-- 2&#45;&gt;3 -->
<g id="edge3" class="edge">
<title>2&#45;&gt;3</title>
<path fill="none" stroke="black" d="M143.23,-103.73C131.54,-94.24 119.1,-84.16 107.46,-74.72"/>
<polygon fill="black" stroke="black" points="109.53,-71.88 99.55,-68.3 105.12,-77.32 109.53,-71.88"/>
</g>
<!-- 4 -->
<g id="node5" class="node">
<title>4</title>
<path fill="#e78b48" stroke="black" d="M240,-68C240,-68 147,-68 147,-68 141,-68 135,-62 135,-56 135,-56 135,-12 135,-12 135,-6 141,0 147,0 147,0 240,0 240,0 246,0 252,-6 252,-12 252,-12 252,-56 252,-56 252,-62 246,-68 240,-68"/>
<text text-anchor="start" x="158" y="-52.8" font-family="Helvetica,sans-Serif" font-size="14.00">gini = 0.133</text>
<text text-anchor="start" x="148.5" y="-37.8" font-family="Helvetica,sans-Serif" font-size="14.00">samples = 807</text>
<text text-anchor="start" x="143" y="-22.8" font-family="Helvetica,sans-Serif" font-size="14.00">value = [749, 58]</text>
<text text-anchor="start" x="162.5" y="-7.8" font-family="Helvetica,sans-Serif" font-size="14.00">class = no</text>
</g>
<!-- 2&#45;&gt;4 -->
<g id="edge4" class="edge">
<title>2&#45;&gt;4</title>
<path fill="none" stroke="black" d="M193.5,-103.73C193.5,-95.52 193.5,-86.86 193.5,-78.56"/>
<polygon fill="black" stroke="black" points="197,-78.3 193.5,-68.3 190,-78.3 197,-78.3"/>
</g>
<!-- 6 -->
<g id="node7" class="node">
<title>6</title>
<path fill="#eca470" stroke="black" d="M375,-68C375,-68 282,-68 282,-68 276,-68 270,-62 270,-56 270,-56 270,-12 270,-12 270,-6 276,0 282,0 282,0 375,0 375,0 381,0 387,-6 387,-12 387,-12 387,-56 387,-56 387,-62 381,-68 375,-68"/>
<text text-anchor="start" x="293" y="-52.8" font-family="Helvetica,sans-Serif" font-size="14.00">gini = 0.342</text>
<text text-anchor="start" x="283.5" y="-37.8" font-family="Helvetica,sans-Serif" font-size="14.00">samples = 302</text>
<text text-anchor="start" x="278" y="-22.8" font-family="Helvetica,sans-Serif" font-size="14.00">value = [236, 66]</text>
<text text-anchor="start" x="297.5" y="-7.8" font-family="Helvetica,sans-Serif" font-size="14.00">class = no</text>
</g>
<!-- 5&#45;&gt;6 -->
<g id="edge6" class="edge">
<title>5&#45;&gt;6</title>
<path fill="none" stroke="black" d="M363.65,-103.73C359.26,-95.15 354.63,-86.09 350.21,-77.46"/>
<polygon fill="black" stroke="black" points="353.2,-75.61 345.53,-68.3 346.97,-78.8 353.2,-75.61"/>
</g>
<!-- 7 -->
<g id="node8" class="node">
<title>7</title>
<path fill="#e78c4a" stroke="black" d="M510,-68C510,-68 417,-68 417,-68 411,-68 405,-62 405,-56 405,-56 405,-12 405,-12 405,-6 411,0 417,0 417,0 510,0 510,0 516,0 522,-6 522,-12 522,-12 522,-56 522,-56 522,-62 516,-68 510,-68"/>
<text text-anchor="start" x="428" y="-52.8" font-family="Helvetica,sans-Serif" font-size="14.00">gini = 0.146</text>
<text text-anchor="start" x="418.5" y="-37.8" font-family="Helvetica,sans-Serif" font-size="14.00">samples = 315</text>
<text text-anchor="start" x="413" y="-22.8" font-family="Helvetica,sans-Serif" font-size="14.00">value = [290, 25]</text>
<text text-anchor="start" x="432.5" y="-7.8" font-family="Helvetica,sans-Serif" font-size="14.00">class = no</text>
</g>
<!-- 5&#45;&gt;7 -->
<g id="edge7" class="edge">
<title>5&#45;&gt;7</title>
<path fill="none" stroke="black" d="M413.92,-103.73C420.3,-94.88 427.06,-85.51 433.47,-76.63"/>
<polygon fill="black" stroke="black" points="436.46,-78.46 439.48,-68.3 430.79,-74.36 436.46,-78.46"/>
</g>
<!-- 9 -->
<g id="node10" class="node">
<title>9</title>
<path fill="#efb286" stroke="black" d="M724,-187C724,-187 623,-187 623,-187 617,-187 611,-181 611,-175 611,-175 611,-116 611,-116 611,-110 617,-104 623,-104 623,-104 724,-104 724,-104 730,-104 736,-110 736,-116 736,-116 736,-175 736,-175 736,-181 730,-187 724,-187"/>
<text text-anchor="start" x="637" y="-171.8" font-family="Helvetica,sans-Serif" font-size="14.00">tenure ≤ 5.5</text>
<text text-anchor="start" x="638" y="-156.8" font-family="Helvetica,sans-Serif" font-size="14.00">gini = 0.403</text>
<text text-anchor="start" x="625" y="-141.8" font-family="Helvetica,sans-Serif" font-size="14.00">samples = 1314</text>
<text text-anchor="start" x="619" y="-126.8" font-family="Helvetica,sans-Serif" font-size="14.00">value = [946, 368]</text>
<text text-anchor="start" x="642.5" y="-111.8" font-family="Helvetica,sans-Serif" font-size="14.00">class = no</text>
</g>
<!-- 8&#45;&gt;9 -->
<g id="edge9" class="edge">
<title>8&#45;&gt;9</title>
<path fill="none" stroke="black" d="M673.5,-222.91C673.5,-214.65 673.5,-205.86 673.5,-197.3"/>
<polygon fill="black" stroke="black" points="677,-197.02 673.5,-187.02 670,-197.02 677,-197.02"/>
</g>
<!-- 12 -->
<g id="node13" class="node">
<title>12</title>
<path fill="#dbedfa" stroke="black" d="M939,-187C939,-187 838,-187 838,-187 832,-187 826,-181 826,-175 826,-175 826,-116 826,-116 826,-110 832,-104 838,-104 838,-104 939,-104 939,-104 945,-104 951,-110 951,-116 951,-116 951,-175 951,-175 951,-181 945,-187 939,-187"/>
<text text-anchor="start" x="848.5" y="-171.8" font-family="Helvetica,sans-Serif" font-size="14.00">tenure ≤ 17.5</text>
<text text-anchor="start" x="853" y="-156.8" font-family="Helvetica,sans-Serif" font-size="14.00">gini = 0.495</text>
<text text-anchor="start" x="840" y="-141.8" font-family="Helvetica,sans-Serif" font-size="14.00">samples = 1572</text>
<text text-anchor="start" x="834" y="-126.8" font-family="Helvetica,sans-Serif" font-size="14.00">value = [708, 864]</text>
<text text-anchor="start" x="854.5" y="-111.8" font-family="Helvetica,sans-Serif" font-size="14.00">class = yes</text>
</g>
<!-- 8&#45;&gt;12 -->
<g id="edge12" class="edge">
<title>8&#45;&gt;12</title>
<path fill="none" stroke="black" d="M748.09,-222.91C770.37,-210.78 794.74,-197.52 816.82,-185.5"/>
<polygon fill="black" stroke="black" points="818.7,-188.47 825.81,-180.61 815.36,-182.32 818.7,-188.47"/>
</g>
<!-- 10 -->
<g id="node11" class="node">
<title>10</title>
<path fill="#f8dcc7" stroke="black" d="M653,-68C653,-68 552,-68 552,-68 546,-68 540,-62 540,-56 540,-56 540,-12 540,-12 540,-6 546,0 552,0 552,0 653,0 653,0 659,0 665,-6 665,-12 665,-12 665,-56 665,-56 665,-62 659,-68 653,-68"/>
<text text-anchor="start" x="567" y="-52.8" font-family="Helvetica,sans-Serif" font-size="14.00">gini = 0.487</text>
<text text-anchor="start" x="557.5" y="-37.8" font-family="Helvetica,sans-Serif" font-size="14.00">samples = 564</text>
<text text-anchor="start" x="548" y="-22.8" font-family="Helvetica,sans-Serif" font-size="14.00">value = [328, 236]</text>
<text text-anchor="start" x="571.5" y="-7.8" font-family="Helvetica,sans-Serif" font-size="14.00">class = no</text>
</g>
<!-- 9&#45;&gt;10 -->
<g id="edge10" class="edge">
<title>9&#45;&gt;10</title>
<path fill="none" stroke="black" d="M647.06,-103.73C641.38,-94.97 635.38,-85.7 629.67,-76.91"/>
<polygon fill="black" stroke="black" points="632.47,-74.79 624.09,-68.3 626.6,-78.59 632.47,-74.79"/>
</g>
<!-- 11 -->
<g id="node12" class="node">
<title>11</title>
<path fill="#eb9c63" stroke="black" d="M796,-68C796,-68 695,-68 695,-68 689,-68 683,-62 683,-56 683,-56 683,-12 683,-12 683,-6 689,0 695,0 695,0 796,0 796,0 802,0 808,-6 808,-12 808,-12 808,-56 808,-56 808,-62 802,-68 796,-68"/>
<text text-anchor="start" x="713.5" y="-52.8" font-family="Helvetica,sans-Serif" font-size="14.00">gini = 0.29</text>
<text text-anchor="start" x="700.5" y="-37.8" font-family="Helvetica,sans-Serif" font-size="14.00">samples = 750</text>
<text text-anchor="start" x="691" y="-22.8" font-family="Helvetica,sans-Serif" font-size="14.00">value = [618, 132]</text>
<text text-anchor="start" x="714.5" y="-7.8" font-family="Helvetica,sans-Serif" font-size="14.00">class = no</text>
</g>
<!-- 9&#45;&gt;11 -->
<g id="edge11" class="edge">
<title>9&#45;&gt;11</title>
<path fill="none" stroke="black" d="M700.31,-103.73C706.07,-94.97 712.16,-85.7 717.95,-76.91"/>
<polygon fill="black" stroke="black" points="721.03,-78.58 723.6,-68.3 715.19,-74.73 721.03,-78.58"/>
</g>
<!-- 13 -->
<g id="node14" class="node">
<title>13</title>
<path fill="#90c8f0" stroke="black" d="M939,-68C939,-68 838,-68 838,-68 832,-68 826,-62 826,-56 826,-56 826,-12 826,-12 826,-6 832,0 838,0 838,0 939,0 939,0 945,0 951,-6 951,-12 951,-12 951,-56 951,-56 951,-62 945,-68 939,-68"/>
<text text-anchor="start" x="853" y="-52.8" font-family="Helvetica,sans-Serif" font-size="14.00">gini = 0.424</text>
<text text-anchor="start" x="843.5" y="-37.8" font-family="Helvetica,sans-Serif" font-size="14.00">samples = 812</text>
<text text-anchor="start" x="834" y="-22.8" font-family="Helvetica,sans-Serif" font-size="14.00">value = [248, 564]</text>
<text text-anchor="start" x="854.5" y="-7.8" font-family="Helvetica,sans-Serif" font-size="14.00">class = yes</text>
</g>
<!-- 12&#45;&gt;13 -->
<g id="edge13" class="edge">
<title>12&#45;&gt;13</title>
<path fill="none" stroke="black" d="M888.5,-103.73C888.5,-95.52 888.5,-86.86 888.5,-78.56"/>
<polygon fill="black" stroke="black" points="892,-78.3 888.5,-68.3 885,-78.3 892,-78.3"/>
</g>
<!-- 14 -->
<g id="node15" class="node">
<title>14</title>
<path fill="#f6d3ba" stroke="black" d="M1082,-68C1082,-68 981,-68 981,-68 975,-68 969,-62 969,-56 969,-56 969,-12 969,-12 969,-6 975,0 981,0 981,0 1082,0 1082,0 1088,0 1094,-6 1094,-12 1094,-12 1094,-56 1094,-56 1094,-62 1088,-68 1082,-68"/>
<text text-anchor="start" x="996" y="-52.8" font-family="Helvetica,sans-Serif" font-size="14.00">gini = 0.478</text>
<text text-anchor="start" x="986.5" y="-37.8" font-family="Helvetica,sans-Serif" font-size="14.00">samples = 760</text>
<text text-anchor="start" x="977" y="-22.8" font-family="Helvetica,sans-Serif" font-size="14.00">value = [460, 300]</text>
<text text-anchor="start" x="1000.5" y="-7.8" font-family="Helvetica,sans-Serif" font-size="14.00">class = no</text>
</g>
<!-- 12&#45;&gt;14 -->
<g id="edge14" class="edge">
<title>12&#45;&gt;14</title>
<path fill="none" stroke="black" d="M941.75,-103.73C954.25,-94.15 967.56,-83.96 979.99,-74.44"/>
<polygon fill="black" stroke="black" points="982.2,-77.16 988.01,-68.3 977.95,-71.6 982.2,-77.16"/>
</g>
</g>
</svg>
