<?xml version="1.0" encoding="UTF-8" standalone="no"?>
<!DOCTYPE svg PUBLIC "-//W3C//DTD SVG 1.1//EN"
 "http://www.w3.org/Graphics/SVG/1.1/DTD/svg11.dtd">
<!-- Generated by graphviz version 2.50.0 (20211204.2007)
 -->
<!-- Title: Tree Pages: 1 -->
<svg width="2128pt" height="552pt"
 viewBox="0.00 0.00 2128.00 552.00" xmlns="http://www.w3.org/2000/svg" xmlns:xlink="http://www.w3.org/1999/xlink">
<g id="graph0" class="graph" transform="scale(1 1) rotate(0) translate(4 548)">
<title>Tree</title>
<polygon fill="white" stroke="transparent" points="-4,4 -4,-548 2124,-548 2124,4 -4,4"/>
<!-- 0 -->
<g id="node1" class="node">
<title>0</title>
<path fill="#eeae80" stroke="black" d="M1039.5,-544C1039.5,-544 857.5,-544 857.5,-544 851.5,-544 845.5,-538 845.5,-532 845.5,-532 845.5,-473 845.5,-473 845.5,-467 851.5,-461 857.5,-461 857.5,-461 1039.5,-461 1039.5,-461 1045.5,-461 1051.5,-467 1051.5,-473 1051.5,-473 1051.5,-532 1051.5,-532 1051.5,-538 1045.5,-544 1039.5,-544"/>
<text text-anchor="start" x="853.5" y="-528.8" font-family="Helvetica,sans-Serif" font-size="14.00">Contract_Month&#45;to&#45;month ≤ 0.5</text>
<text text-anchor="start" x="913" y="-513.8" font-family="Helvetica,sans-Serif" font-size="14.00">gini = 0.389</text>
<text text-anchor="start" x="900" y="-498.8" font-family="Helvetica,sans-Serif" font-size="14.00">samples = 5274</text>
<text text-anchor="start" x="886.5" y="-483.8" font-family="Helvetica,sans-Serif" font-size="14.00">value = [3882, 1392]</text>
<text text-anchor="start" x="917.5" y="-468.8" font-family="Helvetica,sans-Serif" font-size="14.00">class = no</text>
</g>
<!-- 1 -->
<g id="node2" class="node">
<title>1</title>
<path fill="#e78a47" stroke="black" d="M763.5,-425C763.5,-425 623.5,-425 623.5,-425 617.5,-425 611.5,-419 611.5,-413 611.5,-413 611.5,-354 611.5,-354 611.5,-348 617.5,-342 623.5,-342 623.5,-342 763.5,-342 763.5,-342 769.5,-342 775.5,-348 775.5,-354 775.5,-354 775.5,-413 775.5,-413 775.5,-419 769.5,-425 763.5,-425"/>
<text text-anchor="start" x="619.5" y="-409.8" font-family="Helvetica,sans-Serif" font-size="14.00">Contract_Two year ≤ 0.5</text>
<text text-anchor="start" x="658" y="-394.8" font-family="Helvetica,sans-Serif" font-size="14.00">gini = 0.125</text>
<text text-anchor="start" x="645" y="-379.8" font-family="Helvetica,sans-Serif" font-size="14.00">samples = 2388</text>
<text text-anchor="start" x="635.5" y="-364.8" font-family="Helvetica,sans-Serif" font-size="14.00">value = [2228, 160]</text>
<text text-anchor="start" x="662.5" y="-349.8" font-family="Helvetica,sans-Serif" font-size="14.00">class = no</text>
</g>
<!-- 0&#45;&gt;1 -->
<g id="edge1" class="edge">
<title>0&#45;&gt;1</title>
<path fill="none" stroke="black" d="M860.03,-460.91C835.79,-449.79 809.48,-437.71 785.07,-426.52"/>
<polygon fill="black" stroke="black" points="786.37,-423.26 775.82,-422.27 783.45,-429.62 786.37,-423.26"/>
<text text-anchor="middle" x="784.52" y="-442.01" font-family="Helvetica,sans-Serif" font-size="14.00">True</text>
</g>
<!-- 16 -->
<g id="node17" class="node">
<title>16</title>
<path fill="#f8dfcc" stroke="black" d="M1422.5,-425C1422.5,-425 1190.5,-425 1190.5,-425 1184.5,-425 1178.5,-419 1178.5,-413 1178.5,-413 1178.5,-354 1178.5,-354 1178.5,-348 1184.5,-342 1190.5,-342 1190.5,-342 1422.5,-342 1422.5,-342 1428.5,-342 1434.5,-348 1434.5,-354 1434.5,-354 1434.5,-413 1434.5,-413 1434.5,-419 1428.5,-425 1422.5,-425"/>
<text text-anchor="start" x="1186.5" y="-409.8" font-family="Helvetica,sans-Serif" font-size="14.00">PaymentMethod_Electronic check ≤ 0.5</text>
<text text-anchor="start" x="1271" y="-394.8" font-family="Helvetica,sans-Serif" font-size="14.00">gini = 0.489</text>
<text text-anchor="start" x="1258" y="-379.8" font-family="Helvetica,sans-Serif" font-size="14.00">samples = 2886</text>
<text text-anchor="start" x="1244.5" y="-364.8" font-family="Helvetica,sans-Serif" font-size="14.00">value = [1654, 1232]</text>
<text text-anchor="start" x="1275.5" y="-349.8" font-family="Helvetica,sans-Serif" font-size="14.00">class = no</text>
</g>
<!-- 0&#45;&gt;16 -->
<g id="edge16" class="edge">
<title>0&#45;&gt;16</title>
<path fill="none" stroke="black" d="M1051.57,-467.82C1089.34,-455.47 1132.64,-441.32 1172.71,-428.22"/>
<polygon fill="black" stroke="black" points="1173.86,-431.53 1182.28,-425.1 1171.69,-424.88 1173.86,-431.53"/>
<text text-anchor="middle" x="1170.97" y="-443.69" font-family="Helvetica,sans-Serif" font-size="14.00">False</text>
</g>
<!-- 2 -->
<g id="node3" class="node">
<title>2</title>
<path fill="#e89152" stroke="black" d="M518,-306C518,-306 371,-306 371,-306 365,-306 359,-300 359,-294 359,-294 359,-235 359,-235 359,-229 365,-223 371,-223 371,-223 518,-223 518,-223 524,-223 530,-229 530,-235 530,-235 530,-294 530,-294 530,-300 524,-306 518,-306"/>
<text text-anchor="start" x="367" y="-290.8" font-family="Helvetica,sans-Serif" font-size="14.00">PaperlessBilling_No ≤ 0.5</text>
<text text-anchor="start" x="409" y="-275.8" font-family="Helvetica,sans-Serif" font-size="14.00">gini = 0.199</text>
<text text-anchor="start" x="396" y="-260.8" font-family="Helvetica,sans-Serif" font-size="14.00">samples = 1109</text>
<text text-anchor="start" x="390" y="-245.8" font-family="Helvetica,sans-Serif" font-size="14.00">value = [985, 124]</text>
<text text-anchor="start" x="413.5" y="-230.8" font-family="Helvetica,sans-Serif" font-size="14.00">class = no</text>
</g>
<!-- 1&#45;&gt;2 -->
<g id="edge2" class="edge">
<title>1&#45;&gt;2</title>
<path fill="none" stroke="black" d="M611.28,-343.87C588.27,-333.05 563.07,-321.21 539.39,-310.09"/>
<polygon fill="black" stroke="black" points="540.59,-306.78 530.05,-305.7 537.61,-313.12 540.59,-306.78"/>
</g>
<!-- 9 -->
<g id="node10" class="node">
<title>9</title>
<path fill="#e6853f" stroke="black" d="M809.5,-306C809.5,-306 577.5,-306 577.5,-306 571.5,-306 565.5,-300 565.5,-294 565.5,-294 565.5,-235 565.5,-235 565.5,-229 571.5,-223 577.5,-223 577.5,-223 809.5,-223 809.5,-223 815.5,-223 821.5,-229 821.5,-235 821.5,-235 821.5,-294 821.5,-294 821.5,-300 815.5,-306 809.5,-306"/>
<text text-anchor="start" x="573.5" y="-290.8" font-family="Helvetica,sans-Serif" font-size="14.00">PaymentMethod_Electronic check ≤ 0.5</text>
<text text-anchor="start" x="658" y="-275.8" font-family="Helvetica,sans-Serif" font-size="14.00">gini = 0.055</text>
<text text-anchor="start" x="645" y="-260.8" font-family="Helvetica,sans-Serif" font-size="14.00">samples = 1279</text>
<text text-anchor="start" x="639" y="-245.8" font-family="Helvetica,sans-Serif" font-size="14.00">value = [1243, 36]</text>
<text text-anchor="start" x="662.5" y="-230.8" font-family="Helvetica,sans-Serif" font-size="14.00">class = no</text>
</g>
<!-- 1&#45;&gt;9 -->
<g id="edge9" class="edge">
<title>1&#45;&gt;9</title>
<path fill="none" stroke="black" d="M693.5,-341.91C693.5,-333.65 693.5,-324.86 693.5,-316.3"/>
<polygon fill="black" stroke="black" points="697,-316.02 693.5,-306.02 690,-316.02 697,-316.02"/>
</g>
<!-- 3 -->
<g id="node4" class="node">
<title>3</title>
<path fill="#e9965b" stroke="black" d="M233,-187C233,-187 140,-187 140,-187 134,-187 128,-181 128,-175 128,-175 128,-116 128,-116 128,-110 134,-104 140,-104 140,-104 233,-104 233,-104 239,-104 245,-110 245,-116 245,-116 245,-175 245,-175 245,-181 239,-187 233,-187"/>
<text text-anchor="start" x="146.5" y="-171.8" font-family="Helvetica,sans-Serif" font-size="14.00">tenure ≤ 70.5</text>
<text text-anchor="start" x="151" y="-156.8" font-family="Helvetica,sans-Serif" font-size="14.00">gini = 0.248</text>
<text text-anchor="start" x="141.5" y="-141.8" font-family="Helvetica,sans-Serif" font-size="14.00">samples = 606</text>
<text text-anchor="start" x="136" y="-126.8" font-family="Helvetica,sans-Serif" font-size="14.00">value = [518, 88]</text>
<text text-anchor="start" x="155.5" y="-111.8" font-family="Helvetica,sans-Serif" font-size="14.00">class = no</text>
</g>
<!-- 2&#45;&gt;3 -->
<g id="edge3" class="edge">
<title>2&#45;&gt;3</title>
<path fill="none" stroke="black" d="M358.95,-224.7C325.04,-209.33 286.59,-191.89 254.62,-177.39"/>
<polygon fill="black" stroke="black" points="255.91,-174.13 245.35,-173.19 253.01,-180.51 255.91,-174.13"/>
</g>
<!-- 6 -->
<g id="node7" class="node">
<title>6</title>
<path fill="#e78b48" stroke="black" d="M511,-187C511,-187 378,-187 378,-187 372,-187 366,-181 366,-175 366,-175 366,-116 366,-116 366,-110 372,-104 378,-104 378,-104 511,-104 511,-104 517,-104 523,-110 523,-116 523,-116 523,-175 523,-175 523,-181 517,-187 511,-187"/>
<text text-anchor="start" x="374" y="-171.8" font-family="Helvetica,sans-Serif" font-size="14.00">TechSupport_Yes ≤ 0.5</text>
<text text-anchor="start" x="409" y="-156.8" font-family="Helvetica,sans-Serif" font-size="14.00">gini = 0.133</text>
<text text-anchor="start" x="399.5" y="-141.8" font-family="Helvetica,sans-Serif" font-size="14.00">samples = 503</text>
<text text-anchor="start" x="394" y="-126.8" font-family="Helvetica,sans-Serif" font-size="14.00">value = [467, 36]</text>
<text text-anchor="start" x="413.5" y="-111.8" font-family="Helvetica,sans-Serif" font-size="14.00">class = no</text>
</g>
<!-- 2&#45;&gt;6 -->
<g id="edge6" class="edge">
<title>2&#45;&gt;6</title>
<path fill="none" stroke="black" d="M444.5,-222.91C444.5,-214.65 444.5,-205.86 444.5,-197.3"/>
<polygon fill="black" stroke="black" points="448,-197.02 444.5,-187.02 441,-197.02 448,-197.02"/>
</g>
<!-- 4 -->
<g id="node5" class="node">
<title>4</title>
<path fill="#ea975c" stroke="black" d="M105,-68C105,-68 12,-68 12,-68 6,-68 0,-62 0,-56 0,-56 0,-12 0,-12 0,-6 6,0 12,0 12,0 105,0 105,0 111,0 117,-6 117,-12 117,-12 117,-56 117,-56 117,-62 111,-68 105,-68"/>
<text text-anchor="start" x="23" y="-52.8" font-family="Helvetica,sans-Serif" font-size="14.00">gini = 0.255</text>
<text text-anchor="start" x="13.5" y="-37.8" font-family="Helvetica,sans-Serif" font-size="14.00">samples = 580</text>
<text text-anchor="start" x="8" y="-22.8" font-family="Helvetica,sans-Serif" font-size="14.00">value = [493, 87]</text>
<text text-anchor="start" x="27.5" y="-7.8" font-family="Helvetica,sans-Serif" font-size="14.00">class = no</text>
</g>
<!-- 3&#45;&gt;4 -->
<g id="edge4" class="edge">
<title>3&#45;&gt;4</title>
<path fill="none" stroke="black" d="M138.84,-103.73C127.86,-94.33 116.19,-84.35 105.24,-74.99"/>
<polygon fill="black" stroke="black" points="107.3,-72.14 97.43,-68.3 102.75,-77.46 107.3,-72.14"/>
</g>
<!-- 5 -->
<g id="node6" class="node">
<title>5</title>
<path fill="#e68641" stroke="black" d="M225.5,-68C225.5,-68 147.5,-68 147.5,-68 141.5,-68 135.5,-62 135.5,-56 135.5,-56 135.5,-12 135.5,-12 135.5,-6 141.5,0 147.5,0 147.5,0 225.5,0 225.5,0 231.5,0 237.5,-6 237.5,-12 237.5,-12 237.5,-56 237.5,-56 237.5,-62 231.5,-68 225.5,-68"/>
<text text-anchor="start" x="151" y="-52.8" font-family="Helvetica,sans-Serif" font-size="14.00">gini = 0.074</text>
<text text-anchor="start" x="145.5" y="-37.8" font-family="Helvetica,sans-Serif" font-size="14.00">samples = 26</text>
<text text-anchor="start" x="143.5" y="-22.8" font-family="Helvetica,sans-Serif" font-size="14.00">value = [25, 1]</text>
<text text-anchor="start" x="155.5" y="-7.8" font-family="Helvetica,sans-Serif" font-size="14.00">class = no</text>
</g>
<!-- 3&#45;&gt;5 -->
<g id="edge5" class="edge">
<title>3&#45;&gt;5</title>
<path fill="none" stroke="black" d="M186.5,-103.73C186.5,-95.52 186.5,-86.86 186.5,-78.56"/>
<polygon fill="black" stroke="black" points="190,-78.3 186.5,-68.3 183,-78.3 190,-78.3"/>
</g>
<!-- 7 -->
<g id="node8" class="node">
<title>7</title>
<path fill="#e68844" stroke="black" d="M361,-68C361,-68 268,-68 268,-68 262,-68 256,-62 256,-56 256,-56 256,-12 256,-12 256,-6 262,0 268,0 268,0 361,0 361,0 367,0 373,-6 373,-12 373,-12 373,-56 373,-56 373,-62 367,-68 361,-68"/>
<text text-anchor="start" x="279" y="-52.8" font-family="Helvetica,sans-Serif" font-size="14.00">gini = 0.098</text>
<text text-anchor="start" x="269.5" y="-37.8" font-family="Helvetica,sans-Serif" font-size="14.00">samples = 348</text>
<text text-anchor="start" x="264" y="-22.8" font-family="Helvetica,sans-Serif" font-size="14.00">value = [330, 18]</text>
<text text-anchor="start" x="283.5" y="-7.8" font-family="Helvetica,sans-Serif" font-size="14.00">class = no</text>
</g>
<!-- 6&#45;&gt;7 -->
<g id="edge7" class="edge">
<title>6&#45;&gt;7</title>
<path fill="none" stroke="black" d="M396.09,-103.73C384.94,-94.33 373.09,-84.35 361.97,-74.99"/>
<polygon fill="black" stroke="black" points="363.94,-72.06 354.03,-68.3 359.43,-77.42 363.94,-72.06"/>
</g>
<!-- 8 -->
<g id="node9" class="node">
<title>8</title>
<path fill="#e89253" stroke="black" d="M496,-68C496,-68 403,-68 403,-68 397,-68 391,-62 391,-56 391,-56 391,-12 391,-12 391,-6 397,0 403,0 403,0 496,0 496,0 502,0 508,-6 508,-12 508,-12 508,-56 508,-56 508,-62 502,-68 496,-68"/>
<text text-anchor="start" x="414" y="-52.8" font-family="Helvetica,sans-Serif" font-size="14.00">gini = 0.205</text>
<text text-anchor="start" x="404.5" y="-37.8" font-family="Helvetica,sans-Serif" font-size="14.00">samples = 155</text>
<text text-anchor="start" x="399" y="-22.8" font-family="Helvetica,sans-Serif" font-size="14.00">value = [137, 18]</text>
<text text-anchor="start" x="418.5" y="-7.8" font-family="Helvetica,sans-Serif" font-size="14.00">class = no</text>
</g>
<!-- 6&#45;&gt;8 -->
<g id="edge8" class="edge">
<title>6&#45;&gt;8</title>
<path fill="none" stroke="black" d="M446.36,-103.73C446.74,-95.52 447.13,-86.86 447.51,-78.56"/>
<polygon fill="black" stroke="black" points="451.02,-78.45 447.98,-68.3 444.03,-78.13 451.02,-78.45"/>
</g>
<!-- 10 -->
<g id="node11" class="node">
<title>10</title>
<path fill="#e6843d" stroke="black" d="M757,-187C757,-187 610,-187 610,-187 604,-187 598,-181 598,-175 598,-175 598,-116 598,-116 598,-110 604,-104 610,-104 610,-104 757,-104 757,-104 763,-104 769,-110 769,-116 769,-116 769,-175 769,-175 769,-181 763,-187 757,-187"/>
<text text-anchor="start" x="606" y="-171.8" font-family="Helvetica,sans-Serif" font-size="14.00">PaperlessBilling_No ≤ 0.5</text>
<text text-anchor="start" x="648" y="-156.8" font-family="Helvetica,sans-Serif" font-size="14.00">gini = 0.042</text>
<text text-anchor="start" x="635" y="-141.8" font-family="Helvetica,sans-Serif" font-size="14.00">samples = 1153</text>
<text text-anchor="start" x="629" y="-126.8" font-family="Helvetica,sans-Serif" font-size="14.00">value = [1128, 25]</text>
<text text-anchor="start" x="652.5" y="-111.8" font-family="Helvetica,sans-Serif" font-size="14.00">class = no</text>
</g>
<!-- 9&#45;&gt;10 -->
<g id="edge10" class="edge">
<title>9&#45;&gt;10</title>
<path fill="none" stroke="black" d="M690.03,-222.91C689.32,-214.56 688.56,-205.67 687.82,-197.02"/>
<polygon fill="black" stroke="black" points="691.3,-196.69 686.96,-187.02 684.33,-197.28 691.3,-196.69"/>
</g>
<!-- 13 -->
<g id="node14" class="node">
<title>13</title>
<path fill="#e78d4c" stroke="black" d="M892,-187C892,-187 799,-187 799,-187 793,-187 787,-181 787,-175 787,-175 787,-116 787,-116 787,-110 793,-104 799,-104 799,-104 892,-104 892,-104 898,-104 904,-110 904,-116 904,-116 904,-175 904,-175 904,-181 898,-187 892,-187"/>
<text text-anchor="start" x="805.5" y="-171.8" font-family="Helvetica,sans-Serif" font-size="14.00">tenure ≤ 42.5</text>
<text text-anchor="start" x="810" y="-156.8" font-family="Helvetica,sans-Serif" font-size="14.00">gini = 0.159</text>
<text text-anchor="start" x="800.5" y="-141.8" font-family="Helvetica,sans-Serif" font-size="14.00">samples = 126</text>
<text text-anchor="start" x="795" y="-126.8" font-family="Helvetica,sans-Serif" font-size="14.00">value = [115, 11]</text>
<text text-anchor="start" x="814.5" y="-111.8" font-family="Helvetica,sans-Serif" font-size="14.00">class = no</text>
</g>
<!-- 9&#45;&gt;13 -->
<g id="edge13" class="edge">
<title>9&#45;&gt;13</title>
<path fill="none" stroke="black" d="M746.24,-222.91C758.62,-213.38 771.91,-203.15 784.61,-193.37"/>
<polygon fill="black" stroke="black" points="787.07,-195.89 792.86,-187.02 782.8,-190.35 787.07,-195.89"/>
</g>
<!-- 11 -->
<g id="node12" class="node">
<title>11</title>
<path fill="#e68540" stroke="black" d="M631,-68C631,-68 538,-68 538,-68 532,-68 526,-62 526,-56 526,-56 526,-12 526,-12 526,-6 532,0 538,0 538,0 631,0 631,0 637,0 643,-6 643,-12 643,-12 643,-56 643,-56 643,-62 637,-68 631,-68"/>
<text text-anchor="start" x="549" y="-52.8" font-family="Helvetica,sans-Serif" font-size="14.00">gini = 0.066</text>
<text text-anchor="start" x="539.5" y="-37.8" font-family="Helvetica,sans-Serif" font-size="14.00">samples = 526</text>
<text text-anchor="start" x="534" y="-22.8" font-family="Helvetica,sans-Serif" font-size="14.00">value = [508, 18]</text>
<text text-anchor="start" x="553.5" y="-7.8" font-family="Helvetica,sans-Serif" font-size="14.00">class = no</text>
</g>
<!-- 10&#45;&gt;11 -->
<g id="edge11" class="edge">
<title>10&#45;&gt;11</title>
<path fill="none" stroke="black" d="M646.64,-103.73C638.39,-94.61 629.64,-84.93 621.39,-75.81"/>
<polygon fill="black" stroke="black" points="623.91,-73.37 614.61,-68.3 618.72,-78.06 623.91,-73.37"/>
</g>
<!-- 12 -->
<g id="node13" class="node">
<title>12</title>
<path fill="#e5823b" stroke="black" d="M759.5,-68C759.5,-68 673.5,-68 673.5,-68 667.5,-68 661.5,-62 661.5,-56 661.5,-56 661.5,-12 661.5,-12 661.5,-6 667.5,0 673.5,0 673.5,0 759.5,0 759.5,0 765.5,0 771.5,-6 771.5,-12 771.5,-12 771.5,-56 771.5,-56 771.5,-62 765.5,-68 759.5,-68"/>
<text text-anchor="start" x="681" y="-52.8" font-family="Helvetica,sans-Serif" font-size="14.00">gini = 0.022</text>
<text text-anchor="start" x="671.5" y="-37.8" font-family="Helvetica,sans-Serif" font-size="14.00">samples = 627</text>
<text text-anchor="start" x="669.5" y="-22.8" font-family="Helvetica,sans-Serif" font-size="14.00">value = [620, 7]</text>
<text text-anchor="start" x="685.5" y="-7.8" font-family="Helvetica,sans-Serif" font-size="14.00">class = no</text>
</g>
<!-- 10&#45;&gt;12 -->
<g id="edge12" class="edge">
<title>10&#45;&gt;12</title>
<path fill="none" stroke="black" d="M695.79,-103.73C698.32,-95.34 700.99,-86.47 703.54,-78.01"/>
<polygon fill="black" stroke="black" points="706.93,-78.88 706.46,-68.3 700.23,-76.86 706.93,-78.88"/>
</g>
<!-- 14 -->
<g id="node15" class="node">
<title>14</title>
<path fill="#e58139" stroke="black" d="M879.5,-68C879.5,-68 801.5,-68 801.5,-68 795.5,-68 789.5,-62 789.5,-56 789.5,-56 789.5,-12 789.5,-12 789.5,-6 795.5,0 801.5,0 801.5,0 879.5,0 879.5,0 885.5,0 891.5,-6 891.5,-12 891.5,-12 891.5,-56 891.5,-56 891.5,-62 885.5,-68 879.5,-68"/>
<text text-anchor="start" x="812.5" y="-52.8" font-family="Helvetica,sans-Serif" font-size="14.00">gini = 0.0</text>
<text text-anchor="start" x="799.5" y="-37.8" font-family="Helvetica,sans-Serif" font-size="14.00">samples = 16</text>
<text text-anchor="start" x="797.5" y="-22.8" font-family="Helvetica,sans-Serif" font-size="14.00">value = [16, 0]</text>
<text text-anchor="start" x="809.5" y="-7.8" font-family="Helvetica,sans-Serif" font-size="14.00">class = no</text>
</g>
<!-- 13&#45;&gt;14 -->
<g id="edge14" class="edge">
<title>13&#45;&gt;14</title>
<path fill="none" stroke="black" d="M843.64,-103.73C843.26,-95.52 842.87,-86.86 842.49,-78.56"/>
<polygon fill="black" stroke="black" points="845.97,-78.13 842.02,-68.3 838.98,-78.45 845.97,-78.13"/>
</g>
<!-- 15 -->
<g id="node16" class="node">
<title>15</title>
<path fill="#e88f4f" stroke="black" d="M1007.5,-68C1007.5,-68 921.5,-68 921.5,-68 915.5,-68 909.5,-62 909.5,-56 909.5,-56 909.5,-12 909.5,-12 909.5,-6 915.5,0 921.5,0 921.5,0 1007.5,0 1007.5,0 1013.5,0 1019.5,-6 1019.5,-12 1019.5,-12 1019.5,-56 1019.5,-56 1019.5,-62 1013.5,-68 1007.5,-68"/>
<text text-anchor="start" x="932.5" y="-52.8" font-family="Helvetica,sans-Serif" font-size="14.00">gini = 0.18</text>
<text text-anchor="start" x="919.5" y="-37.8" font-family="Helvetica,sans-Serif" font-size="14.00">samples = 110</text>
<text text-anchor="start" x="917.5" y="-22.8" font-family="Helvetica,sans-Serif" font-size="14.00">value = [99, 11]</text>
<text text-anchor="start" x="933.5" y="-7.8" font-family="Helvetica,sans-Serif" font-size="14.00">class = no</text>
</g>
<!-- 13&#45;&gt;15 -->
<g id="edge15" class="edge">
<title>13&#45;&gt;15</title>
<path fill="none" stroke="black" d="M889.81,-103.73C899.92,-94.42 910.66,-84.54 920.75,-75.26"/>
<polygon fill="black" stroke="black" points="923.32,-77.65 928.31,-68.3 918.58,-72.5 923.32,-77.65"/>
</g>
<!-- 17 -->
<g id="node18" class="node">
<title>17</title>
<path fill="#f2be98" stroke="black" d="M1360.5,-306C1360.5,-306 1252.5,-306 1252.5,-306 1246.5,-306 1240.5,-300 1240.5,-294 1240.5,-294 1240.5,-235 1240.5,-235 1240.5,-229 1246.5,-223 1252.5,-223 1252.5,-223 1360.5,-223 1360.5,-223 1366.5,-223 1372.5,-229 1372.5,-235 1372.5,-235 1372.5,-294 1372.5,-294 1372.5,-300 1366.5,-306 1360.5,-306"/>
<text text-anchor="start" x="1270" y="-290.8" font-family="Helvetica,sans-Serif" font-size="14.00">tenure ≤ 7.5</text>
<text text-anchor="start" x="1271" y="-275.8" font-family="Helvetica,sans-Serif" font-size="14.00">gini = 0.439</text>
<text text-anchor="start" x="1258" y="-260.8" font-family="Helvetica,sans-Serif" font-size="14.00">samples = 1506</text>
<text text-anchor="start" x="1248.5" y="-245.8" font-family="Helvetica,sans-Serif" font-size="14.00">value = [1016, 490]</text>
<text text-anchor="start" x="1275.5" y="-230.8" font-family="Helvetica,sans-Serif" font-size="14.00">class = no</text>
</g>
<!-- 16&#45;&gt;17 -->
<g id="edge17" class="edge">
<title>16&#45;&gt;17</title>
<path fill="none" stroke="black" d="M1306.5,-341.91C1306.5,-333.65 1306.5,-324.86 1306.5,-316.3"/>
<polygon fill="black" stroke="black" points="1310,-316.02 1306.5,-306.02 1303,-316.02 1310,-316.02"/>
</g>
<!-- 24 -->
<g id="node25" class="node">
<title>24</title>
<path fill="#e3f1fb" stroke="black" d="M1750,-306C1750,-306 1649,-306 1649,-306 1643,-306 1637,-300 1637,-294 1637,-294 1637,-235 1637,-235 1637,-229 1643,-223 1649,-223 1649,-223 1750,-223 1750,-223 1756,-223 1762,-229 1762,-235 1762,-235 1762,-294 1762,-294 1762,-300 1756,-306 1750,-306"/>
<text text-anchor="start" x="1659.5" y="-290.8" font-family="Helvetica,sans-Serif" font-size="14.00">tenure ≤ 20.5</text>
<text text-anchor="start" x="1664" y="-275.8" font-family="Helvetica,sans-Serif" font-size="14.00">gini = 0.497</text>
<text text-anchor="start" x="1651" y="-260.8" font-family="Helvetica,sans-Serif" font-size="14.00">samples = 1380</text>
<text text-anchor="start" x="1645" y="-245.8" font-family="Helvetica,sans-Serif" font-size="14.00">value = [638, 742]</text>
<text text-anchor="start" x="1665.5" y="-230.8" font-family="Helvetica,sans-Serif" font-size="14.00">class = yes</text>
</g>
<!-- 16&#45;&gt;24 -->
<g id="edge24" class="edge">
<title>16&#45;&gt;24</title>
<path fill="none" stroke="black" d="M1434.64,-344.35C1498.43,-325.36 1573.19,-303.1 1626.99,-287.09"/>
<polygon fill="black" stroke="black" points="1628.2,-290.38 1636.79,-284.17 1626.21,-283.67 1628.2,-290.38"/>
</g>
<!-- 18 -->
<g id="node19" class="node">
<title>18</title>
<path fill="#f9e2d2" stroke="black" d="M1290,-187C1290,-187 1137,-187 1137,-187 1131,-187 1125,-181 1125,-175 1125,-175 1125,-116 1125,-116 1125,-110 1131,-104 1137,-104 1137,-104 1290,-104 1290,-104 1296,-104 1302,-110 1302,-116 1302,-116 1302,-175 1302,-175 1302,-181 1296,-187 1290,-187"/>
<text text-anchor="start" x="1133" y="-171.8" font-family="Helvetica,sans-Serif" font-size="14.00">PaperlessBilling_Yes ≤ 0.5</text>
<text text-anchor="start" x="1178" y="-156.8" font-family="Helvetica,sans-Serif" font-size="14.00">gini = 0.492</text>
<text text-anchor="start" x="1168.5" y="-141.8" font-family="Helvetica,sans-Serif" font-size="14.00">samples = 572</text>
<text text-anchor="start" x="1159" y="-126.8" font-family="Helvetica,sans-Serif" font-size="14.00">value = [323, 249]</text>
<text text-anchor="start" x="1182.5" y="-111.8" font-family="Helvetica,sans-Serif" font-size="14.00">class = no</text>
</g>
<!-- 17&#45;&gt;18 -->
<g id="edge18" class="edge">
<title>17&#45;&gt;18</title>
<path fill="none" stroke="black" d="M1274.23,-222.91C1267.09,-213.92 1259.46,-204.32 1252.09,-195.05"/>
<polygon fill="black" stroke="black" points="1254.67,-192.67 1245.71,-187.02 1249.19,-197.03 1254.67,-192.67"/>
</g>
<!-- 21 -->
<g id="node22" class="node">
<title>21</title>
<path fill="#eead7e" stroke="black" d="M1469,-187C1469,-187 1332,-187 1332,-187 1326,-187 1320,-181 1320,-175 1320,-175 1320,-116 1320,-116 1320,-110 1326,-104 1332,-104 1332,-104 1469,-104 1469,-104 1475,-104 1481,-110 1481,-116 1481,-116 1481,-175 1481,-175 1481,-181 1475,-187 1469,-187"/>
<text text-anchor="start" x="1328" y="-171.8" font-family="Helvetica,sans-Serif" font-size="14.00">SeniorCitizen_Yes ≤ 0.5</text>
<text text-anchor="start" x="1365" y="-156.8" font-family="Helvetica,sans-Serif" font-size="14.00">gini = 0.383</text>
<text text-anchor="start" x="1355.5" y="-141.8" font-family="Helvetica,sans-Serif" font-size="14.00">samples = 934</text>
<text text-anchor="start" x="1346" y="-126.8" font-family="Helvetica,sans-Serif" font-size="14.00">value = [693, 241]</text>
<text text-anchor="start" x="1369.5" y="-111.8" font-family="Helvetica,sans-Serif" font-size="14.00">class = no</text>
</g>
<!-- 17&#45;&gt;21 -->
<g id="edge21" class="edge">
<title>17&#45;&gt;21</title>
<path fill="none" stroke="black" d="M1339.11,-222.91C1346.33,-213.92 1354.05,-204.32 1361.49,-195.05"/>
<polygon fill="black" stroke="black" points="1364.41,-197.01 1367.94,-187.02 1358.95,-192.62 1364.41,-197.01"/>
</g>
<!-- 19 -->
<g id="node20" class="node">
<title>19</title>
<path fill="#f2c09d" stroke="black" d="M1143,-68C1143,-68 1050,-68 1050,-68 1044,-68 1038,-62 1038,-56 1038,-56 1038,-12 1038,-12 1038,-6 1044,0 1050,0 1050,0 1143,0 1143,0 1149,0 1155,-6 1155,-12 1155,-12 1155,-56 1155,-56 1155,-62 1149,-68 1143,-68"/>
<text text-anchor="start" x="1061" y="-52.8" font-family="Helvetica,sans-Serif" font-size="14.00">gini = 0.445</text>
<text text-anchor="start" x="1051.5" y="-37.8" font-family="Helvetica,sans-Serif" font-size="14.00">samples = 293</text>
<text text-anchor="start" x="1046" y="-22.8" font-family="Helvetica,sans-Serif" font-size="14.00">value = [195, 98]</text>
<text text-anchor="start" x="1065.5" y="-7.8" font-family="Helvetica,sans-Serif" font-size="14.00">class = no</text>
</g>
<!-- 18&#45;&gt;19 -->
<g id="edge19" class="edge">
<title>18&#45;&gt;19</title>
<path fill="none" stroke="black" d="M1169.93,-103.73C1159.99,-94.42 1149.44,-84.54 1139.52,-75.26"/>
<polygon fill="black" stroke="black" points="1141.77,-72.58 1132.08,-68.3 1136.99,-77.69 1141.77,-72.58"/>
</g>
<!-- 20 -->
<g id="node21" class="node">
<title>20</title>
<path fill="#e1f0fb" stroke="black" d="M1286,-68C1286,-68 1185,-68 1185,-68 1179,-68 1173,-62 1173,-56 1173,-56 1173,-12 1173,-12 1173,-6 1179,0 1185,0 1185,0 1286,0 1286,0 1292,0 1298,-6 1298,-12 1298,-12 1298,-56 1298,-56 1298,-62 1292,-68 1286,-68"/>
<text text-anchor="start" x="1200" y="-52.8" font-family="Helvetica,sans-Serif" font-size="14.00">gini = 0.497</text>
<text text-anchor="start" x="1190.5" y="-37.8" font-family="Helvetica,sans-Serif" font-size="14.00">samples = 279</text>
<text text-anchor="start" x="1181" y="-22.8" font-family="Helvetica,sans-Serif" font-size="14.00">value = [128, 151]</text>
<text text-anchor="start" x="1201.5" y="-7.8" font-family="Helvetica,sans-Serif" font-size="14.00">class = yes</text>
</g>
<!-- 18&#45;&gt;20 -->
<g id="edge20" class="edge">
<title>18&#45;&gt;20</title>
<path fill="none" stroke="black" d="M1221.69,-103.73C1223.36,-95.43 1225.12,-86.67 1226.8,-78.28"/>
<polygon fill="black" stroke="black" points="1230.27,-78.79 1228.81,-68.3 1223.41,-77.41 1230.27,-78.79"/>
</g>
<!-- 22 -->
<g id="node23" class="node">
<title>22</title>
<path fill="#eca470" stroke="black" d="M1429,-68C1429,-68 1328,-68 1328,-68 1322,-68 1316,-62 1316,-56 1316,-56 1316,-12 1316,-12 1316,-6 1322,0 1328,0 1328,0 1429,0 1429,0 1435,0 1441,-6 1441,-12 1441,-12 1441,-56 1441,-56 1441,-62 1435,-68 1429,-68"/>
<text text-anchor="start" x="1343" y="-52.8" font-family="Helvetica,sans-Serif" font-size="14.00">gini = 0.341</text>
<text text-anchor="start" x="1333.5" y="-37.8" font-family="Helvetica,sans-Serif" font-size="14.00">samples = 762</text>
<text text-anchor="start" x="1324" y="-22.8" font-family="Helvetica,sans-Serif" font-size="14.00">value = [596, 166]</text>
<text text-anchor="start" x="1347.5" y="-7.8" font-family="Helvetica,sans-Serif" font-size="14.00">class = no</text>
</g>
<!-- 21&#45;&gt;22 -->
<g id="edge22" class="edge">
<title>21&#45;&gt;22</title>
<path fill="none" stroke="black" d="M1392.31,-103.73C1390.64,-95.43 1388.88,-86.67 1387.2,-78.28"/>
<polygon fill="black" stroke="black" points="1390.59,-77.41 1385.19,-68.3 1383.73,-78.79 1390.59,-77.41"/>
</g>
<!-- 23 -->
<g id="node24" class="node">
<title>23</title>
<path fill="#f9e2d2" stroke="black" d="M1557.5,-68C1557.5,-68 1471.5,-68 1471.5,-68 1465.5,-68 1459.5,-62 1459.5,-56 1459.5,-56 1459.5,-12 1459.5,-12 1459.5,-6 1465.5,0 1471.5,0 1471.5,0 1557.5,0 1557.5,0 1563.5,0 1569.5,-6 1569.5,-12 1569.5,-12 1569.5,-56 1569.5,-56 1569.5,-62 1563.5,-68 1557.5,-68"/>
<text text-anchor="start" x="1479" y="-52.8" font-family="Helvetica,sans-Serif" font-size="14.00">gini = 0.492</text>
<text text-anchor="start" x="1469.5" y="-37.8" font-family="Helvetica,sans-Serif" font-size="14.00">samples = 172</text>
<text text-anchor="start" x="1467.5" y="-22.8" font-family="Helvetica,sans-Serif" font-size="14.00">value = [97, 75]</text>
<text text-anchor="start" x="1483.5" y="-7.8" font-family="Helvetica,sans-Serif" font-size="14.00">class = no</text>
</g>
<!-- 21&#45;&gt;23 -->
<g id="edge23" class="edge">
<title>21&#45;&gt;23</title>
<path fill="none" stroke="black" d="M1442.95,-103.73C1452.63,-94.42 1462.92,-84.54 1472.58,-75.26"/>
<polygon fill="black" stroke="black" points="1475.04,-77.75 1479.83,-68.3 1470.2,-72.7 1475.04,-77.75"/>
</g>
<!-- 25 -->
<g id="node26" class="node">
<title>25</title>
<path fill="#b2d9f5" stroke="black" d="M1750,-187C1750,-187 1649,-187 1649,-187 1643,-187 1637,-181 1637,-175 1637,-175 1637,-116 1637,-116 1637,-110 1643,-104 1649,-104 1649,-104 1750,-104 1750,-104 1756,-104 1762,-110 1762,-116 1762,-116 1762,-175 1762,-175 1762,-181 1756,-187 1750,-187"/>
<text text-anchor="start" x="1663" y="-171.8" font-family="Helvetica,sans-Serif" font-size="14.00">tenure ≤ 1.5</text>
<text text-anchor="start" x="1664" y="-156.8" font-family="Helvetica,sans-Serif" font-size="14.00">gini = 0.471</text>
<text text-anchor="start" x="1654.5" y="-141.8" font-family="Helvetica,sans-Serif" font-size="14.00">samples = 905</text>
<text text-anchor="start" x="1645" y="-126.8" font-family="Helvetica,sans-Serif" font-size="14.00">value = [343, 562]</text>
<text text-anchor="start" x="1665.5" y="-111.8" font-family="Helvetica,sans-Serif" font-size="14.00">class = yes</text>
</g>
<!-- 24&#45;&gt;25 -->
<g id="edge25" class="edge">
<title>24&#45;&gt;25</title>
<path fill="none" stroke="black" d="M1699.5,-222.91C1699.5,-214.65 1699.5,-205.86 1699.5,-197.3"/>
<polygon fill="black" stroke="black" points="1703,-197.02 1699.5,-187.02 1696,-197.02 1703,-197.02"/>
</g>
<!-- 28 -->
<g id="node29" class="node">
<title>28</title>
<path fill="#f5ceb2" stroke="black" d="M1998,-187C1998,-187 1845,-187 1845,-187 1839,-187 1833,-181 1833,-175 1833,-175 1833,-116 1833,-116 1833,-110 1839,-104 1845,-104 1845,-104 1998,-104 1998,-104 2004,-104 2010,-110 2010,-116 2010,-116 2010,-175 2010,-175 2010,-181 2004,-187 1998,-187"/>
<text text-anchor="start" x="1841" y="-171.8" font-family="Helvetica,sans-Serif" font-size="14.00">PaperlessBilling_Yes ≤ 0.5</text>
<text text-anchor="start" x="1886" y="-156.8" font-family="Helvetica,sans-Serif" font-size="14.00">gini = 0.471</text>
<text text-anchor="start" x="1876.5" y="-141.8" font-family="Helvetica,sans-Serif" font-size="14.00">samples = 475</text>
<text text-anchor="start" x="1867" y="-126.8" font-family="Helvetica,sans-Serif" font-size="14.00">value = [295, 180]</text>
<text text-anchor="start" x="1890.5" y="-111.8" font-family="Helvetica,sans-Serif" font-size="14.00">class = no</text>
</g>
<!-- 24&#45;&gt;28 -->
<g id="edge28" class="edge">
<title>24&#45;&gt;28</title>
<path fill="none" stroke="black" d="M1762.23,-230.44C1784.95,-218.47 1811.03,-204.72 1835.41,-191.87"/>
<polygon fill="black" stroke="black" points="1837.1,-194.94 1844.31,-187.18 1833.83,-188.75 1837.1,-194.94"/>
</g>
<!-- 26 -->
<g id="node27" class="node">
<title>26</title>
<path fill="#71b9ec" stroke="black" d="M1693,-68C1693,-68 1600,-68 1600,-68 1594,-68 1588,-62 1588,-56 1588,-56 1588,-12 1588,-12 1588,-6 1594,0 1600,0 1600,0 1693,0 1693,0 1699,0 1705,-6 1705,-12 1705,-12 1705,-56 1705,-56 1705,-62 1699,-68 1693,-68"/>
<text text-anchor="start" x="1611" y="-52.8" font-family="Helvetica,sans-Serif" font-size="14.00">gini = 0.345</text>
<text text-anchor="start" x="1601.5" y="-37.8" font-family="Helvetica,sans-Serif" font-size="14.00">samples = 212</text>
<text text-anchor="start" x="1596" y="-22.8" font-family="Helvetica,sans-Serif" font-size="14.00">value = [47, 165]</text>
<text text-anchor="start" x="1612.5" y="-7.8" font-family="Helvetica,sans-Serif" font-size="14.00">class = yes</text>
</g>
<!-- 25&#45;&gt;26 -->
<g id="edge26" class="edge">
<title>25&#45;&gt;26</title>
<path fill="none" stroke="black" d="M1679.76,-103.73C1675.61,-95.15 1671.23,-86.09 1667.05,-77.46"/>
<polygon fill="black" stroke="black" points="1670.12,-75.78 1662.62,-68.3 1663.82,-78.83 1670.12,-75.78"/>
</g>
<!-- 27 -->
<g id="node28" class="node">
<title>27</title>
<path fill="#cde6f8" stroke="black" d="M1836,-68C1836,-68 1735,-68 1735,-68 1729,-68 1723,-62 1723,-56 1723,-56 1723,-12 1723,-12 1723,-6 1729,0 1735,0 1735,0 1836,0 1836,0 1842,0 1848,-6 1848,-12 1848,-12 1848,-56 1848,-56 1848,-62 1842,-68 1836,-68"/>
<text text-anchor="start" x="1750" y="-52.8" font-family="Helvetica,sans-Serif" font-size="14.00">gini = 0.489</text>
<text text-anchor="start" x="1740.5" y="-37.8" font-family="Helvetica,sans-Serif" font-size="14.00">samples = 693</text>
<text text-anchor="start" x="1731" y="-22.8" font-family="Helvetica,sans-Serif" font-size="14.00">value = [296, 397]</text>
<text text-anchor="start" x="1751.5" y="-7.8" font-family="Helvetica,sans-Serif" font-size="14.00">class = yes</text>
</g>
<!-- 25&#45;&gt;27 -->
<g id="edge27" class="edge">
<title>25&#45;&gt;27</title>
<path fill="none" stroke="black" d="M1731.52,-103.73C1738.54,-94.79 1745.98,-85.32 1753.02,-76.36"/>
<polygon fill="black" stroke="black" points="1755.92,-78.33 1759.35,-68.3 1750.42,-74 1755.92,-78.33"/>
</g>
<!-- 29 -->
<g id="node30" class="node">
<title>29</title>
<path fill="#eeac7d" stroke="black" d="M1964.5,-68C1964.5,-68 1878.5,-68 1878.5,-68 1872.5,-68 1866.5,-62 1866.5,-56 1866.5,-56 1866.5,-12 1866.5,-12 1866.5,-6 1872.5,0 1878.5,0 1878.5,0 1964.5,0 1964.5,0 1970.5,0 1976.5,-6 1976.5,-12 1976.5,-12 1976.5,-56 1976.5,-56 1976.5,-62 1970.5,-68 1964.5,-68"/>
<text text-anchor="start" x="1889.5" y="-52.8" font-family="Helvetica,sans-Serif" font-size="14.00">gini = 0.38</text>
<text text-anchor="start" x="1876.5" y="-37.8" font-family="Helvetica,sans-Serif" font-size="14.00">samples = 110</text>
<text text-anchor="start" x="1874.5" y="-22.8" font-family="Helvetica,sans-Serif" font-size="14.00">value = [82, 28]</text>
<text text-anchor="start" x="1890.5" y="-7.8" font-family="Helvetica,sans-Serif" font-size="14.00">class = no</text>
</g>
<!-- 28&#45;&gt;29 -->
<g id="edge29" class="edge">
<title>28&#45;&gt;29</title>
<path fill="none" stroke="black" d="M1921.5,-103.73C1921.5,-95.52 1921.5,-86.86 1921.5,-78.56"/>
<polygon fill="black" stroke="black" points="1925,-78.3 1921.5,-68.3 1918,-78.3 1925,-78.3"/>
</g>
<!-- 30 -->
<g id="node31" class="node">
<title>30</title>
<path fill="#f8dbc6" stroke="black" d="M2108,-68C2108,-68 2007,-68 2007,-68 2001,-68 1995,-62 1995,-56 1995,-56 1995,-12 1995,-12 1995,-6 2001,0 2007,0 2007,0 2108,0 2108,0 2114,0 2120,-6 2120,-12 2120,-12 2120,-56 2120,-56 2120,-62 2114,-68 2108,-68"/>
<text text-anchor="start" x="2022" y="-52.8" font-family="Helvetica,sans-Serif" font-size="14.00">gini = 0.486</text>
<text text-anchor="start" x="2012.5" y="-37.8" font-family="Helvetica,sans-Serif" font-size="14.00">samples = 365</text>
<text text-anchor="start" x="2003" y="-22.8" font-family="Helvetica,sans-Serif" font-size="14.00">value = [213, 152]</text>
<text text-anchor="start" x="2026.5" y="-7.8" font-family="Helvetica,sans-Serif" font-size="14.00">class = no</text>
</g>
<!-- 28&#45;&gt;30 -->
<g id="edge30" class="edge">
<title>28&#45;&gt;30</title>
<path fill="none" stroke="black" d="M1972.14,-103.73C1983.92,-94.24 1996.45,-84.16 2008.17,-74.72"/>
<polygon fill="black" stroke="black" points="2010.55,-77.3 2016.14,-68.3 2006.16,-71.84 2010.55,-77.3"/>
</g>
</g>
</svg>
