<?xml version="1.0" encoding="UTF-8" standalone="no"?>
<!DOCTYPE svg PUBLIC "-//W3C//DTD SVG 1.1//EN"
 "http://www.w3.org/Graphics/SVG/1.1/DTD/svg11.dtd">
<!-- Generated by graphviz version 2.50.0 (20211204.2007)
 -->
<!-- Title: Tree Pages: 1 -->
<svg width="2109pt" height="552pt"
 viewBox="0.00 0.00 2108.50 552.00" xmlns="http://www.w3.org/2000/svg" xmlns:xlink="http://www.w3.org/1999/xlink">
<g id="graph0" class="graph" transform="scale(1 1) rotate(0) translate(4 548)">
<title>Tree</title>
<polygon fill="white" stroke="transparent" points="-4,4 -4,-548 2104.5,-548 2104.5,4 -4,4"/>
<!-- 0 -->
<g id="node1" class="node">
<title>0</title>
<path fill="#eeae80" stroke="black" d="M1104,-544C1104,-544 922,-544 922,-544 916,-544 910,-538 910,-532 910,-532 910,-473 910,-473 910,-467 916,-461 922,-461 922,-461 1104,-461 1104,-461 1110,-461 1116,-467 1116,-473 1116,-473 1116,-532 1116,-532 1116,-538 1110,-544 1104,-544"/>
<text text-anchor="start" x="918" y="-528.8" font-family="Helvetica,sans-Serif" font-size="14.00">Contract_Month&#45;to&#45;month ≤ 0.5</text>
<text text-anchor="start" x="977.5" y="-513.8" font-family="Helvetica,sans-Serif" font-size="14.00">gini = 0.389</text>
<text text-anchor="start" x="964.5" y="-498.8" font-family="Helvetica,sans-Serif" font-size="14.00">samples = 5274</text>
<text text-anchor="start" x="951" y="-483.8" font-family="Helvetica,sans-Serif" font-size="14.00">value = [3882, 1392]</text>
<text text-anchor="start" x="982" y="-468.8" font-family="Helvetica,sans-Serif" font-size="14.00">class = no</text>
</g>
<!-- 1 -->
<g id="node2" class="node">
<title>1</title>
<path fill="#e78a47" stroke="black" d="M832,-425C832,-425 684,-425 684,-425 678,-425 672,-419 672,-413 672,-413 672,-354 672,-354 672,-348 678,-342 684,-342 684,-342 832,-342 832,-342 838,-342 844,-348 844,-354 844,-354 844,-413 844,-413 844,-419 838,-425 832,-425"/>
<text text-anchor="start" x="680" y="-409.8" font-family="Helvetica,sans-Serif" font-size="14.00">MonthlyCharges ≤ 93.675</text>
<text text-anchor="start" x="722.5" y="-394.8" font-family="Helvetica,sans-Serif" font-size="14.00">gini = 0.125</text>
<text text-anchor="start" x="709.5" y="-379.8" font-family="Helvetica,sans-Serif" font-size="14.00">samples = 2388</text>
<text text-anchor="start" x="700" y="-364.8" font-family="Helvetica,sans-Serif" font-size="14.00">value = [2228, 160]</text>
<text text-anchor="start" x="727" y="-349.8" font-family="Helvetica,sans-Serif" font-size="14.00">class = no</text>
</g>
<!-- 0&#45;&gt;1 -->
<g id="edge1" class="edge">
<title>0&#45;&gt;1</title>
<path fill="none" stroke="black" d="M924.53,-460.91C901.54,-450.36 876.69,-438.96 853.36,-428.25"/>
<polygon fill="black" stroke="black" points="854.71,-425.02 844.16,-424.03 851.79,-431.39 854.71,-425.02"/>
<text text-anchor="middle" x="852.86" y="-443.77" font-family="Helvetica,sans-Serif" font-size="14.00">True</text>
</g>
<!-- 16 -->
<g id="node17" class="node">
<title>16</title>
<path fill="#f8dfcc" stroke="black" d="M1375,-425C1375,-425 1187,-425 1187,-425 1181,-425 1175,-419 1175,-413 1175,-413 1175,-354 1175,-354 1175,-348 1181,-342 1187,-342 1187,-342 1375,-342 1375,-342 1381,-342 1387,-348 1387,-354 1387,-354 1387,-413 1387,-413 1387,-419 1381,-425 1375,-425"/>
<text text-anchor="start" x="1183" y="-409.8" font-family="Helvetica,sans-Serif" font-size="14.00">InternetService_Fiber optic ≤ 0.5</text>
<text text-anchor="start" x="1245.5" y="-394.8" font-family="Helvetica,sans-Serif" font-size="14.00">gini = 0.489</text>
<text text-anchor="start" x="1232.5" y="-379.8" font-family="Helvetica,sans-Serif" font-size="14.00">samples = 2886</text>
<text text-anchor="start" x="1219" y="-364.8" font-family="Helvetica,sans-Serif" font-size="14.00">value = [1654, 1232]</text>
<text text-anchor="start" x="1250" y="-349.8" font-family="Helvetica,sans-Serif" font-size="14.00">class = no</text>
</g>
<!-- 0&#45;&gt;16 -->
<g id="edge16" class="edge">
<title>0&#45;&gt;16</title>
<path fill="none" stroke="black" d="M1105.98,-460.91C1129.47,-450.65 1154.82,-439.59 1178.74,-429.14"/>
<polygon fill="black" stroke="black" points="1180.42,-432.23 1188.18,-425.02 1177.62,-425.81 1180.42,-432.23"/>
<text text-anchor="middle" x="1179.05" y="-444.59" font-family="Helvetica,sans-Serif" font-size="14.00">False</text>
</g>
<!-- 2 -->
<g id="node3" class="node">
<title>2</title>
<path fill="#e68641" stroke="black" d="M501.5,-306C501.5,-306 360.5,-306 360.5,-306 354.5,-306 348.5,-300 348.5,-294 348.5,-294 348.5,-235 348.5,-235 348.5,-229 354.5,-223 360.5,-223 360.5,-223 501.5,-223 501.5,-223 507.5,-223 513.5,-229 513.5,-235 513.5,-235 513.5,-294 513.5,-294 513.5,-300 507.5,-306 501.5,-306"/>
<text text-anchor="start" x="356.5" y="-290.8" font-family="Helvetica,sans-Serif" font-size="14.00">Contract_One year ≤ 0.5</text>
<text text-anchor="start" x="395.5" y="-275.8" font-family="Helvetica,sans-Serif" font-size="14.00">gini = 0.075</text>
<text text-anchor="start" x="382.5" y="-260.8" font-family="Helvetica,sans-Serif" font-size="14.00">samples = 1771</text>
<text text-anchor="start" x="376.5" y="-245.8" font-family="Helvetica,sans-Serif" font-size="14.00">value = [1702, 69]</text>
<text text-anchor="start" x="400" y="-230.8" font-family="Helvetica,sans-Serif" font-size="14.00">class = no</text>
</g>
<!-- 1&#45;&gt;2 -->
<g id="edge2" class="edge">
<title>1&#45;&gt;2</title>
<path fill="none" stroke="black" d="M671.66,-351.61C625.9,-335.23 569.67,-315.12 523.08,-298.45"/>
<polygon fill="black" stroke="black" points="524.19,-295.13 513.59,-295.05 521.83,-301.72 524.19,-295.13"/>
</g>
<!-- 9 -->
<g id="node10" class="node">
<title>9</title>
<path fill="#e9975b" stroke="black" d="M828,-306C828,-306 688,-306 688,-306 682,-306 676,-300 676,-294 676,-294 676,-235 676,-235 676,-229 682,-223 688,-223 688,-223 828,-223 828,-223 834,-223 840,-229 840,-235 840,-235 840,-294 840,-294 840,-300 834,-306 828,-306"/>
<text text-anchor="start" x="684" y="-290.8" font-family="Helvetica,sans-Serif" font-size="14.00">Contract_Two year ≤ 0.5</text>
<text text-anchor="start" x="722.5" y="-275.8" font-family="Helvetica,sans-Serif" font-size="14.00">gini = 0.251</text>
<text text-anchor="start" x="713" y="-260.8" font-family="Helvetica,sans-Serif" font-size="14.00">samples = 617</text>
<text text-anchor="start" x="707.5" y="-245.8" font-family="Helvetica,sans-Serif" font-size="14.00">value = [526, 91]</text>
<text text-anchor="start" x="727" y="-230.8" font-family="Helvetica,sans-Serif" font-size="14.00">class = no</text>
</g>
<!-- 1&#45;&gt;9 -->
<g id="edge9" class="edge">
<title>1&#45;&gt;9</title>
<path fill="none" stroke="black" d="M758,-341.91C758,-333.65 758,-324.86 758,-316.3"/>
<polygon fill="black" stroke="black" points="761.5,-316.02 758,-306.02 754.5,-316.02 761.5,-316.02"/>
</g>
<!-- 3 -->
<g id="node4" class="node">
<title>3</title>
<path fill="#e5823b" stroke="black" d="M295,-187C295,-187 63,-187 63,-187 57,-187 51,-181 51,-175 51,-175 51,-116 51,-116 51,-110 57,-104 63,-104 63,-104 295,-104 295,-104 301,-104 307,-110 307,-116 307,-116 307,-175 307,-175 307,-181 301,-187 295,-187"/>
<text text-anchor="start" x="59" y="-171.8" font-family="Helvetica,sans-Serif" font-size="14.00">PaymentMethod_Electronic check ≤ 0.5</text>
<text text-anchor="start" x="143.5" y="-156.8" font-family="Helvetica,sans-Serif" font-size="14.00">gini = 0.023</text>
<text text-anchor="start" x="134" y="-141.8" font-family="Helvetica,sans-Serif" font-size="14.00">samples = 964</text>
<text text-anchor="start" x="128.5" y="-126.8" font-family="Helvetica,sans-Serif" font-size="14.00">value = [953, 11]</text>
<text text-anchor="start" x="148" y="-111.8" font-family="Helvetica,sans-Serif" font-size="14.00">class = no</text>
</g>
<!-- 2&#45;&gt;3 -->
<g id="edge3" class="edge">
<title>2&#45;&gt;3</title>
<path fill="none" stroke="black" d="M348.49,-225.19C325.19,-214.38 299.64,-202.51 275.6,-191.35"/>
<polygon fill="black" stroke="black" points="277.01,-188.15 266.47,-187.11 274.06,-194.5 277.01,-188.15"/>
</g>
<!-- 6 -->
<g id="node7" class="node">
<title>6</title>
<path fill="#e78b48" stroke="black" d="M512.5,-187C512.5,-187 349.5,-187 349.5,-187 343.5,-187 337.5,-181 337.5,-175 337.5,-175 337.5,-116 337.5,-116 337.5,-110 343.5,-104 349.5,-104 349.5,-104 512.5,-104 512.5,-104 518.5,-104 524.5,-110 524.5,-116 524.5,-116 524.5,-175 524.5,-175 524.5,-181 518.5,-187 512.5,-187"/>
<text text-anchor="start" x="345.5" y="-171.8" font-family="Helvetica,sans-Serif" font-size="14.00">StreamingMovies_Yes ≤ 0.5</text>
<text text-anchor="start" x="395.5" y="-156.8" font-family="Helvetica,sans-Serif" font-size="14.00">gini = 0.133</text>
<text text-anchor="start" x="386" y="-141.8" font-family="Helvetica,sans-Serif" font-size="14.00">samples = 807</text>
<text text-anchor="start" x="380.5" y="-126.8" font-family="Helvetica,sans-Serif" font-size="14.00">value = [749, 58]</text>
<text text-anchor="start" x="400" y="-111.8" font-family="Helvetica,sans-Serif" font-size="14.00">class = no</text>
</g>
<!-- 2&#45;&gt;6 -->
<g id="edge6" class="edge">
<title>2&#45;&gt;6</title>
<path fill="none" stroke="black" d="M431,-222.91C431,-214.65 431,-205.86 431,-197.3"/>
<polygon fill="black" stroke="black" points="434.5,-197.02 431,-187.02 427.5,-197.02 434.5,-197.02"/>
</g>
<!-- 4 -->
<g id="node5" class="node">
<title>4</title>
<path fill="#e5823b" stroke="black" d="M98,-68C98,-68 12,-68 12,-68 6,-68 0,-62 0,-56 0,-56 0,-12 0,-12 0,-6 6,0 12,0 12,0 98,0 98,0 104,0 110,-6 110,-12 110,-12 110,-56 110,-56 110,-62 104,-68 98,-68"/>
<text text-anchor="start" x="19.5" y="-52.8" font-family="Helvetica,sans-Serif" font-size="14.00">gini = 0.017</text>
<text text-anchor="start" x="10" y="-37.8" font-family="Helvetica,sans-Serif" font-size="14.00">samples = 907</text>
<text text-anchor="start" x="8" y="-22.8" font-family="Helvetica,sans-Serif" font-size="14.00">value = [899, 8]</text>
<text text-anchor="start" x="24" y="-7.8" font-family="Helvetica,sans-Serif" font-size="14.00">class = no</text>
</g>
<!-- 3&#45;&gt;4 -->
<g id="edge4" class="edge">
<title>3&#45;&gt;4</title>
<path fill="none" stroke="black" d="M132.83,-103.73C122.19,-94.33 110.88,-84.35 100.28,-74.99"/>
<polygon fill="black" stroke="black" points="102.52,-72.3 92.71,-68.3 97.89,-77.54 102.52,-72.3"/>
</g>
<!-- 5 -->
<g id="node6" class="node">
<title>5</title>
<path fill="#e68844" stroke="black" d="M218,-68C218,-68 140,-68 140,-68 134,-68 128,-62 128,-56 128,-56 128,-12 128,-12 128,-6 134,0 140,0 140,0 218,0 218,0 224,0 230,-6 230,-12 230,-12 230,-56 230,-56 230,-62 224,-68 218,-68"/>
<text text-anchor="start" x="151" y="-52.8" font-family="Helvetica,sans-Serif" font-size="14.00">gini = 0.1</text>
<text text-anchor="start" x="138" y="-37.8" font-family="Helvetica,sans-Serif" font-size="14.00">samples = 57</text>
<text text-anchor="start" x="136" y="-22.8" font-family="Helvetica,sans-Serif" font-size="14.00">value = [54, 3]</text>
<text text-anchor="start" x="148" y="-7.8" font-family="Helvetica,sans-Serif" font-size="14.00">class = no</text>
</g>
<!-- 3&#45;&gt;5 -->
<g id="edge5" class="edge">
<title>3&#45;&gt;5</title>
<path fill="none" stroke="black" d="M179,-103.73C179,-95.52 179,-86.86 179,-78.56"/>
<polygon fill="black" stroke="black" points="182.5,-78.3 179,-68.3 175.5,-78.3 182.5,-78.3"/>
</g>
<!-- 7 -->
<g id="node8" class="node">
<title>7</title>
<path fill="#e68742" stroke="black" d="M353.5,-68C353.5,-68 260.5,-68 260.5,-68 254.5,-68 248.5,-62 248.5,-56 248.5,-56 248.5,-12 248.5,-12 248.5,-6 254.5,0 260.5,0 260.5,0 353.5,0 353.5,0 359.5,0 365.5,-6 365.5,-12 365.5,-12 365.5,-56 365.5,-56 365.5,-62 359.5,-68 353.5,-68"/>
<text text-anchor="start" x="271.5" y="-52.8" font-family="Helvetica,sans-Serif" font-size="14.00">gini = 0.085</text>
<text text-anchor="start" x="262" y="-37.8" font-family="Helvetica,sans-Serif" font-size="14.00">samples = 581</text>
<text text-anchor="start" x="256.5" y="-22.8" font-family="Helvetica,sans-Serif" font-size="14.00">value = [555, 26]</text>
<text text-anchor="start" x="276" y="-7.8" font-family="Helvetica,sans-Serif" font-size="14.00">class = no</text>
</g>
<!-- 6&#45;&gt;7 -->
<g id="edge7" class="edge">
<title>6&#45;&gt;7</title>
<path fill="none" stroke="black" d="M384.83,-103.73C374.19,-94.33 362.88,-84.35 352.28,-74.99"/>
<polygon fill="black" stroke="black" points="354.52,-72.3 344.71,-68.3 349.89,-77.54 354.52,-72.3"/>
</g>
<!-- 8 -->
<g id="node9" class="node">
<title>8</title>
<path fill="#e9965a" stroke="black" d="M488.5,-68C488.5,-68 395.5,-68 395.5,-68 389.5,-68 383.5,-62 383.5,-56 383.5,-56 383.5,-12 383.5,-12 383.5,-6 389.5,0 395.5,0 395.5,0 488.5,0 488.5,0 494.5,0 500.5,-6 500.5,-12 500.5,-12 500.5,-56 500.5,-56 500.5,-62 494.5,-68 488.5,-68"/>
<text text-anchor="start" x="406.5" y="-52.8" font-family="Helvetica,sans-Serif" font-size="14.00">gini = 0.243</text>
<text text-anchor="start" x="397" y="-37.8" font-family="Helvetica,sans-Serif" font-size="14.00">samples = 226</text>
<text text-anchor="start" x="391.5" y="-22.8" font-family="Helvetica,sans-Serif" font-size="14.00">value = [194, 32]</text>
<text text-anchor="start" x="411" y="-7.8" font-family="Helvetica,sans-Serif" font-size="14.00">class = no</text>
</g>
<!-- 6&#45;&gt;8 -->
<g id="edge8" class="edge">
<title>6&#45;&gt;8</title>
<path fill="none" stroke="black" d="M435.1,-103.73C435.93,-95.43 436.81,-86.67 437.65,-78.28"/>
<polygon fill="black" stroke="black" points="441.14,-78.6 438.65,-68.3 434.17,-77.9 441.14,-78.6"/>
</g>
<!-- 10 -->
<g id="node11" class="node">
<title>10</title>
<path fill="#eca470" stroke="black" d="M735.5,-187C735.5,-187 592.5,-187 592.5,-187 586.5,-187 580.5,-181 580.5,-175 580.5,-175 580.5,-116 580.5,-116 580.5,-110 586.5,-104 592.5,-104 592.5,-104 735.5,-104 735.5,-104 741.5,-104 747.5,-110 747.5,-116 747.5,-116 747.5,-175 747.5,-175 747.5,-181 741.5,-187 735.5,-187"/>
<text text-anchor="start" x="588.5" y="-171.8" font-family="Helvetica,sans-Serif" font-size="14.00">TotalCharges ≤ 8081.775</text>
<text text-anchor="start" x="628.5" y="-156.8" font-family="Helvetica,sans-Serif" font-size="14.00">gini = 0.342</text>
<text text-anchor="start" x="619" y="-141.8" font-family="Helvetica,sans-Serif" font-size="14.00">samples = 302</text>
<text text-anchor="start" x="613.5" y="-126.8" font-family="Helvetica,sans-Serif" font-size="14.00">value = [236, 66]</text>
<text text-anchor="start" x="633" y="-111.8" font-family="Helvetica,sans-Serif" font-size="14.00">class = no</text>
</g>
<!-- 9&#45;&gt;10 -->
<g id="edge10" class="edge">
<title>9&#45;&gt;10</title>
<path fill="none" stroke="black" d="M725.39,-222.91C718.17,-213.92 710.45,-204.32 703.01,-195.05"/>
<polygon fill="black" stroke="black" points="705.55,-192.62 696.56,-187.02 700.09,-197.01 705.55,-192.62"/>
</g>
<!-- 13 -->
<g id="node14" class="node">
<title>13</title>
<path fill="#e78c4a" stroke="black" d="M926,-187C926,-187 778,-187 778,-187 772,-187 766,-181 766,-175 766,-175 766,-116 766,-116 766,-110 772,-104 778,-104 778,-104 926,-104 926,-104 932,-104 938,-110 938,-116 938,-116 938,-175 938,-175 938,-181 932,-187 926,-187"/>
<text text-anchor="start" x="774" y="-171.8" font-family="Helvetica,sans-Serif" font-size="14.00">MonthlyCharges ≤ 94.175</text>
<text text-anchor="start" x="816.5" y="-156.8" font-family="Helvetica,sans-Serif" font-size="14.00">gini = 0.146</text>
<text text-anchor="start" x="807" y="-141.8" font-family="Helvetica,sans-Serif" font-size="14.00">samples = 315</text>
<text text-anchor="start" x="801.5" y="-126.8" font-family="Helvetica,sans-Serif" font-size="14.00">value = [290, 25]</text>
<text text-anchor="start" x="821" y="-111.8" font-family="Helvetica,sans-Serif" font-size="14.00">class = no</text>
</g>
<!-- 9&#45;&gt;13 -->
<g id="edge13" class="edge">
<title>9&#45;&gt;13</title>
<path fill="none" stroke="black" d="M790.61,-222.91C797.83,-213.92 805.55,-204.32 812.99,-195.05"/>
<polygon fill="black" stroke="black" points="815.91,-197.01 819.44,-187.02 810.45,-192.62 815.91,-197.01"/>
</g>
<!-- 11 -->
<g id="node12" class="node">
<title>11</title>
<path fill="#eca36f" stroke="black" d="M623.5,-68C623.5,-68 530.5,-68 530.5,-68 524.5,-68 518.5,-62 518.5,-56 518.5,-56 518.5,-12 518.5,-12 518.5,-6 524.5,0 530.5,0 530.5,0 623.5,0 623.5,0 629.5,0 635.5,-6 635.5,-12 635.5,-12 635.5,-56 635.5,-56 635.5,-62 629.5,-68 623.5,-68"/>
<text text-anchor="start" x="541.5" y="-52.8" font-family="Helvetica,sans-Serif" font-size="14.00">gini = 0.336</text>
<text text-anchor="start" x="532" y="-37.8" font-family="Helvetica,sans-Serif" font-size="14.00">samples = 300</text>
<text text-anchor="start" x="526.5" y="-22.8" font-family="Helvetica,sans-Serif" font-size="14.00">value = [236, 64]</text>
<text text-anchor="start" x="546" y="-7.8" font-family="Helvetica,sans-Serif" font-size="14.00">class = no</text>
</g>
<!-- 10&#45;&gt;11 -->
<g id="edge11" class="edge">
<title>10&#45;&gt;11</title>
<path fill="none" stroke="black" d="M631.6,-103.73C624.5,-94.79 616.98,-85.32 609.86,-76.36"/>
<polygon fill="black" stroke="black" points="612.42,-73.95 603.46,-68.3 606.94,-78.31 612.42,-73.95"/>
</g>
<!-- 12 -->
<g id="node13" class="node">
<title>12</title>
<path fill="#399de5" stroke="black" d="M736.5,-68C736.5,-68 665.5,-68 665.5,-68 659.5,-68 653.5,-62 653.5,-56 653.5,-56 653.5,-12 653.5,-12 653.5,-6 659.5,0 665.5,0 665.5,0 736.5,0 736.5,0 742.5,0 748.5,-6 748.5,-12 748.5,-12 748.5,-56 748.5,-56 748.5,-62 742.5,-68 736.5,-68"/>
<text text-anchor="start" x="673" y="-52.8" font-family="Helvetica,sans-Serif" font-size="14.00">gini = 0.0</text>
<text text-anchor="start" x="663.5" y="-37.8" font-family="Helvetica,sans-Serif" font-size="14.00">samples = 2</text>
<text text-anchor="start" x="661.5" y="-22.8" font-family="Helvetica,sans-Serif" font-size="14.00">value = [0, 2]</text>
<text text-anchor="start" x="667" y="-7.8" font-family="Helvetica,sans-Serif" font-size="14.00">class = yes</text>
</g>
<!-- 10&#45;&gt;12 -->
<g id="edge12" class="edge">
<title>10&#45;&gt;12</title>
<path fill="none" stroke="black" d="M677.78,-103.73C680.61,-95.34 683.61,-86.47 686.47,-78.01"/>
<polygon fill="black" stroke="black" points="689.86,-78.89 689.75,-68.3 683.23,-76.65 689.86,-78.89"/>
</g>
<!-- 14 -->
<g id="node15" class="node">
<title>14</title>
<path fill="#bddef6" stroke="black" d="M849.5,-68C849.5,-68 778.5,-68 778.5,-68 772.5,-68 766.5,-62 766.5,-56 766.5,-56 766.5,-12 766.5,-12 766.5,-6 772.5,0 778.5,0 778.5,0 849.5,0 849.5,0 855.5,0 861.5,-6 861.5,-12 861.5,-12 861.5,-56 861.5,-56 861.5,-62 855.5,-68 849.5,-68"/>
<text text-anchor="start" x="782" y="-52.8" font-family="Helvetica,sans-Serif" font-size="14.00">gini = 0.48</text>
<text text-anchor="start" x="776.5" y="-37.8" font-family="Helvetica,sans-Serif" font-size="14.00">samples = 5</text>
<text text-anchor="start" x="774.5" y="-22.8" font-family="Helvetica,sans-Serif" font-size="14.00">value = [2, 3]</text>
<text text-anchor="start" x="780" y="-7.8" font-family="Helvetica,sans-Serif" font-size="14.00">class = yes</text>
</g>
<!-- 13&#45;&gt;14 -->
<g id="edge14" class="edge">
<title>13&#45;&gt;14</title>
<path fill="none" stroke="black" d="M837.85,-103.73C834.94,-95.34 831.86,-86.47 828.92,-78.01"/>
<polygon fill="black" stroke="black" points="832.14,-76.6 825.56,-68.3 825.53,-78.89 832.14,-76.6"/>
</g>
<!-- 15 -->
<g id="node16" class="node">
<title>15</title>
<path fill="#e78b48" stroke="black" d="M984.5,-68C984.5,-68 891.5,-68 891.5,-68 885.5,-68 879.5,-62 879.5,-56 879.5,-56 879.5,-12 879.5,-12 879.5,-6 885.5,0 891.5,0 891.5,0 984.5,0 984.5,0 990.5,0 996.5,-6 996.5,-12 996.5,-12 996.5,-56 996.5,-56 996.5,-62 990.5,-68 984.5,-68"/>
<text text-anchor="start" x="902.5" y="-52.8" font-family="Helvetica,sans-Serif" font-size="14.00">gini = 0.132</text>
<text text-anchor="start" x="893" y="-37.8" font-family="Helvetica,sans-Serif" font-size="14.00">samples = 310</text>
<text text-anchor="start" x="887.5" y="-22.8" font-family="Helvetica,sans-Serif" font-size="14.00">value = [288, 22]</text>
<text text-anchor="start" x="907" y="-7.8" font-family="Helvetica,sans-Serif" font-size="14.00">class = no</text>
</g>
<!-- 13&#45;&gt;15 -->
<g id="edge15" class="edge">
<title>13&#45;&gt;15</title>
<path fill="none" stroke="black" d="M884.02,-103.73C891.04,-94.79 898.48,-85.32 905.52,-76.36"/>
<polygon fill="black" stroke="black" points="908.42,-78.33 911.85,-68.3 902.92,-74 908.42,-78.33"/>
</g>
<!-- 17 -->
<g id="node18" class="node">
<title>17</title>
<path fill="#efb286" stroke="black" d="M1331.5,-306C1331.5,-306 1230.5,-306 1230.5,-306 1224.5,-306 1218.5,-300 1218.5,-294 1218.5,-294 1218.5,-235 1218.5,-235 1218.5,-229 1224.5,-223 1230.5,-223 1230.5,-223 1331.5,-223 1331.5,-223 1337.5,-223 1343.5,-229 1343.5,-235 1343.5,-235 1343.5,-294 1343.5,-294 1343.5,-300 1337.5,-306 1331.5,-306"/>
<text text-anchor="start" x="1244.5" y="-290.8" font-family="Helvetica,sans-Serif" font-size="14.00">tenure ≤ 5.5</text>
<text text-anchor="start" x="1245.5" y="-275.8" font-family="Helvetica,sans-Serif" font-size="14.00">gini = 0.403</text>
<text text-anchor="start" x="1232.5" y="-260.8" font-family="Helvetica,sans-Serif" font-size="14.00">samples = 1314</text>
<text text-anchor="start" x="1226.5" y="-245.8" font-family="Helvetica,sans-Serif" font-size="14.00">value = [946, 368]</text>
<text text-anchor="start" x="1250" y="-230.8" font-family="Helvetica,sans-Serif" font-size="14.00">class = no</text>
</g>
<!-- 16&#45;&gt;17 -->
<g id="edge17" class="edge">
<title>16&#45;&gt;17</title>
<path fill="none" stroke="black" d="M1281,-341.91C1281,-333.65 1281,-324.86 1281,-316.3"/>
<polygon fill="black" stroke="black" points="1284.5,-316.02 1281,-306.02 1277.5,-316.02 1284.5,-316.02"/>
</g>
<!-- 24 -->
<g id="node25" class="node">
<title>24</title>
<path fill="#dbedfa" stroke="black" d="M1735.5,-306C1735.5,-306 1634.5,-306 1634.5,-306 1628.5,-306 1622.5,-300 1622.5,-294 1622.5,-294 1622.5,-235 1622.5,-235 1622.5,-229 1628.5,-223 1634.5,-223 1634.5,-223 1735.5,-223 1735.5,-223 1741.5,-223 1747.5,-229 1747.5,-235 1747.5,-235 1747.5,-294 1747.5,-294 1747.5,-300 1741.5,-306 1735.5,-306"/>
<text text-anchor="start" x="1645" y="-290.8" font-family="Helvetica,sans-Serif" font-size="14.00">tenure ≤ 17.5</text>
<text text-anchor="start" x="1649.5" y="-275.8" font-family="Helvetica,sans-Serif" font-size="14.00">gini = 0.495</text>
<text text-anchor="start" x="1636.5" y="-260.8" font-family="Helvetica,sans-Serif" font-size="14.00">samples = 1572</text>
<text text-anchor="start" x="1630.5" y="-245.8" font-family="Helvetica,sans-Serif" font-size="14.00">value = [708, 864]</text>
<text text-anchor="start" x="1651" y="-230.8" font-family="Helvetica,sans-Serif" font-size="14.00">class = yes</text>
</g>
<!-- 16&#45;&gt;24 -->
<g id="edge24" class="edge">
<title>16&#45;&gt;24</title>
<path fill="none" stroke="black" d="M1387.15,-351.76C1458.16,-331.19 1549.75,-304.67 1612.5,-286.5"/>
<polygon fill="black" stroke="black" points="1613.69,-289.8 1622.32,-283.65 1611.74,-283.07 1613.69,-289.8"/>
</g>
<!-- 18 -->
<g id="node19" class="node">
<title>18</title>
<path fill="#f8dcc7" stroke="black" d="M1264.5,-187C1264.5,-187 1113.5,-187 1113.5,-187 1107.5,-187 1101.5,-181 1101.5,-175 1101.5,-175 1101.5,-116 1101.5,-116 1101.5,-110 1107.5,-104 1113.5,-104 1113.5,-104 1264.5,-104 1264.5,-104 1270.5,-104 1276.5,-110 1276.5,-116 1276.5,-116 1276.5,-175 1276.5,-175 1276.5,-181 1270.5,-187 1264.5,-187"/>
<text text-anchor="start" x="1109.5" y="-171.8" font-family="Helvetica,sans-Serif" font-size="14.00">InternetService_DSL ≤ 0.5</text>
<text text-anchor="start" x="1153.5" y="-156.8" font-family="Helvetica,sans-Serif" font-size="14.00">gini = 0.487</text>
<text text-anchor="start" x="1144" y="-141.8" font-family="Helvetica,sans-Serif" font-size="14.00">samples = 564</text>
<text text-anchor="start" x="1134.5" y="-126.8" font-family="Helvetica,sans-Serif" font-size="14.00">value = [328, 236]</text>
<text text-anchor="start" x="1158" y="-111.8" font-family="Helvetica,sans-Serif" font-size="14.00">class = no</text>
</g>
<!-- 17&#45;&gt;18 -->
<g id="edge18" class="edge">
<title>17&#45;&gt;18</title>
<path fill="none" stroke="black" d="M1249.08,-222.91C1242.02,-213.92 1234.46,-204.32 1227.18,-195.05"/>
<polygon fill="black" stroke="black" points="1229.8,-192.72 1220.86,-187.02 1224.29,-197.05 1229.8,-192.72"/>
</g>
<!-- 21 -->
<g id="node22" class="node">
<title>21</title>
<path fill="#eb9c63" stroke="black" d="M1441.5,-187C1441.5,-187 1306.5,-187 1306.5,-187 1300.5,-187 1294.5,-181 1294.5,-175 1294.5,-175 1294.5,-116 1294.5,-116 1294.5,-110 1300.5,-104 1306.5,-104 1306.5,-104 1441.5,-104 1441.5,-104 1447.5,-104 1453.5,-110 1453.5,-116 1453.5,-116 1453.5,-175 1453.5,-175 1453.5,-181 1447.5,-187 1441.5,-187"/>
<text text-anchor="start" x="1302.5" y="-171.8" font-family="Helvetica,sans-Serif" font-size="14.00">PhoneService_No ≤ 0.5</text>
<text text-anchor="start" x="1342" y="-156.8" font-family="Helvetica,sans-Serif" font-size="14.00">gini = 0.29</text>
<text text-anchor="start" x="1329" y="-141.8" font-family="Helvetica,sans-Serif" font-size="14.00">samples = 750</text>
<text text-anchor="start" x="1319.5" y="-126.8" font-family="Helvetica,sans-Serif" font-size="14.00">value = [618, 132]</text>
<text text-anchor="start" x="1343" y="-111.8" font-family="Helvetica,sans-Serif" font-size="14.00">class = no</text>
</g>
<!-- 17&#45;&gt;21 -->
<g id="edge21" class="edge">
<title>17&#45;&gt;21</title>
<path fill="none" stroke="black" d="M1313.27,-222.91C1320.41,-213.92 1328.04,-204.32 1335.41,-195.05"/>
<polygon fill="black" stroke="black" points="1338.31,-197.03 1341.79,-187.02 1332.83,-192.67 1338.31,-197.03"/>
</g>
<!-- 19 -->
<g id="node20" class="node">
<title>19</title>
<path fill="#eeae80" stroke="black" d="M1119.5,-68C1119.5,-68 1026.5,-68 1026.5,-68 1020.5,-68 1014.5,-62 1014.5,-56 1014.5,-56 1014.5,-12 1014.5,-12 1014.5,-6 1020.5,0 1026.5,0 1026.5,0 1119.5,0 1119.5,0 1125.5,0 1131.5,-6 1131.5,-12 1131.5,-12 1131.5,-56 1131.5,-56 1131.5,-62 1125.5,-68 1119.5,-68"/>
<text text-anchor="start" x="1037.5" y="-52.8" font-family="Helvetica,sans-Serif" font-size="14.00">gini = 0.388</text>
<text text-anchor="start" x="1028" y="-37.8" font-family="Helvetica,sans-Serif" font-size="14.00">samples = 213</text>
<text text-anchor="start" x="1022.5" y="-22.8" font-family="Helvetica,sans-Serif" font-size="14.00">value = [157, 56]</text>
<text text-anchor="start" x="1042" y="-7.8" font-family="Helvetica,sans-Serif" font-size="14.00">class = no</text>
</g>
<!-- 18&#45;&gt;19 -->
<g id="edge19" class="edge">
<title>18&#45;&gt;19</title>
<path fill="none" stroke="black" d="M1145.81,-103.73C1135.95,-94.42 1125.48,-84.54 1115.65,-75.26"/>
<polygon fill="black" stroke="black" points="1117.95,-72.62 1108.28,-68.3 1113.15,-77.71 1117.95,-72.62"/>
</g>
<!-- 20 -->
<g id="node21" class="node">
<title>20</title>
<path fill="#f5fafe" stroke="black" d="M1262.5,-68C1262.5,-68 1161.5,-68 1161.5,-68 1155.5,-68 1149.5,-62 1149.5,-56 1149.5,-56 1149.5,-12 1149.5,-12 1149.5,-6 1155.5,0 1161.5,0 1161.5,0 1262.5,0 1262.5,0 1268.5,0 1274.5,-6 1274.5,-12 1274.5,-12 1274.5,-56 1274.5,-56 1274.5,-62 1268.5,-68 1262.5,-68"/>
<text text-anchor="start" x="1184" y="-52.8" font-family="Helvetica,sans-Serif" font-size="14.00">gini = 0.5</text>
<text text-anchor="start" x="1167" y="-37.8" font-family="Helvetica,sans-Serif" font-size="14.00">samples = 351</text>
<text text-anchor="start" x="1157.5" y="-22.8" font-family="Helvetica,sans-Serif" font-size="14.00">value = [171, 180]</text>
<text text-anchor="start" x="1178" y="-7.8" font-family="Helvetica,sans-Serif" font-size="14.00">class = yes</text>
</g>
<!-- 18&#45;&gt;20 -->
<g id="edge20" class="edge">
<title>18&#45;&gt;20</title>
<path fill="none" stroke="black" d="M1197.56,-103.73C1199.31,-95.43 1201.15,-86.67 1202.91,-78.28"/>
<polygon fill="black" stroke="black" points="1206.38,-78.81 1205.01,-68.3 1199.52,-77.37 1206.38,-78.81"/>
</g>
<!-- 22 -->
<g id="node23" class="node">
<title>22</title>
<path fill="#e9965a" stroke="black" d="M1397.5,-68C1397.5,-68 1304.5,-68 1304.5,-68 1298.5,-68 1292.5,-62 1292.5,-56 1292.5,-56 1292.5,-12 1292.5,-12 1292.5,-6 1298.5,0 1304.5,0 1304.5,0 1397.5,0 1397.5,0 1403.5,0 1409.5,-6 1409.5,-12 1409.5,-12 1409.5,-56 1409.5,-56 1409.5,-62 1403.5,-68 1397.5,-68"/>
<text text-anchor="start" x="1315.5" y="-52.8" font-family="Helvetica,sans-Serif" font-size="14.00">gini = 0.243</text>
<text text-anchor="start" x="1306" y="-37.8" font-family="Helvetica,sans-Serif" font-size="14.00">samples = 579</text>
<text text-anchor="start" x="1300.5" y="-22.8" font-family="Helvetica,sans-Serif" font-size="14.00">value = [497, 82]</text>
<text text-anchor="start" x="1320" y="-7.8" font-family="Helvetica,sans-Serif" font-size="14.00">class = no</text>
</g>
<!-- 21&#45;&gt;22 -->
<g id="edge22" class="edge">
<title>21&#45;&gt;22</title>
<path fill="none" stroke="black" d="M1365.44,-103.73C1363.69,-95.43 1361.85,-86.67 1360.09,-78.28"/>
<polygon fill="black" stroke="black" points="1363.48,-77.37 1357.99,-68.3 1356.62,-78.81 1363.48,-77.37"/>
</g>
<!-- 23 -->
<g id="node24" class="node">
<title>23</title>
<path fill="#f0b58b" stroke="black" d="M1532.5,-68C1532.5,-68 1439.5,-68 1439.5,-68 1433.5,-68 1427.5,-62 1427.5,-56 1427.5,-56 1427.5,-12 1427.5,-12 1427.5,-6 1433.5,0 1439.5,0 1439.5,0 1532.5,0 1532.5,0 1538.5,0 1544.5,-6 1544.5,-12 1544.5,-12 1544.5,-56 1544.5,-56 1544.5,-62 1538.5,-68 1532.5,-68"/>
<text text-anchor="start" x="1450.5" y="-52.8" font-family="Helvetica,sans-Serif" font-size="14.00">gini = 0.414</text>
<text text-anchor="start" x="1441" y="-37.8" font-family="Helvetica,sans-Serif" font-size="14.00">samples = 171</text>
<text text-anchor="start" x="1435.5" y="-22.8" font-family="Helvetica,sans-Serif" font-size="14.00">value = [121, 50]</text>
<text text-anchor="start" x="1455" y="-7.8" font-family="Helvetica,sans-Serif" font-size="14.00">class = no</text>
</g>
<!-- 21&#45;&gt;23 -->
<g id="edge23" class="edge">
<title>21&#45;&gt;23</title>
<path fill="none" stroke="black" d="M1415.7,-103.73C1425.13,-94.51 1435.13,-84.74 1444.54,-75.53"/>
<polygon fill="black" stroke="black" points="1447.24,-77.79 1451.94,-68.3 1442.34,-72.79 1447.24,-77.79"/>
</g>
<!-- 25 -->
<g id="node26" class="node">
<title>25</title>
<path fill="#90c8f0" stroke="black" d="M1745.5,-187C1745.5,-187 1624.5,-187 1624.5,-187 1618.5,-187 1612.5,-181 1612.5,-175 1612.5,-175 1612.5,-116 1612.5,-116 1612.5,-110 1618.5,-104 1624.5,-104 1624.5,-104 1745.5,-104 1745.5,-104 1751.5,-104 1757.5,-110 1757.5,-116 1757.5,-116 1757.5,-175 1757.5,-175 1757.5,-181 1751.5,-187 1745.5,-187"/>
<text text-anchor="start" x="1620.5" y="-171.8" font-family="Helvetica,sans-Serif" font-size="14.00">TotalCharges ≤ 120.0</text>
<text text-anchor="start" x="1649.5" y="-156.8" font-family="Helvetica,sans-Serif" font-size="14.00">gini = 0.424</text>
<text text-anchor="start" x="1640" y="-141.8" font-family="Helvetica,sans-Serif" font-size="14.00">samples = 812</text>
<text text-anchor="start" x="1630.5" y="-126.8" font-family="Helvetica,sans-Serif" font-size="14.00">value = [248, 564]</text>
<text text-anchor="start" x="1651" y="-111.8" font-family="Helvetica,sans-Serif" font-size="14.00">class = yes</text>
</g>
<!-- 24&#45;&gt;25 -->
<g id="edge25" class="edge">
<title>24&#45;&gt;25</title>
<path fill="none" stroke="black" d="M1685,-222.91C1685,-214.65 1685,-205.86 1685,-197.3"/>
<polygon fill="black" stroke="black" points="1688.5,-197.02 1685,-187.02 1681.5,-197.02 1688.5,-197.02"/>
</g>
<!-- 28 -->
<g id="node29" class="node">
<title>28</title>
<path fill="#f6d3ba" stroke="black" d="M1953.5,-187C1953.5,-187 1852.5,-187 1852.5,-187 1846.5,-187 1840.5,-181 1840.5,-175 1840.5,-175 1840.5,-116 1840.5,-116 1840.5,-110 1846.5,-104 1852.5,-104 1852.5,-104 1953.5,-104 1953.5,-104 1959.5,-104 1965.5,-110 1965.5,-116 1965.5,-116 1965.5,-175 1965.5,-175 1965.5,-181 1959.5,-187 1953.5,-187"/>
<text text-anchor="start" x="1863" y="-171.8" font-family="Helvetica,sans-Serif" font-size="14.00">tenure ≤ 54.5</text>
<text text-anchor="start" x="1867.5" y="-156.8" font-family="Helvetica,sans-Serif" font-size="14.00">gini = 0.478</text>
<text text-anchor="start" x="1858" y="-141.8" font-family="Helvetica,sans-Serif" font-size="14.00">samples = 760</text>
<text text-anchor="start" x="1848.5" y="-126.8" font-family="Helvetica,sans-Serif" font-size="14.00">value = [460, 300]</text>
<text text-anchor="start" x="1872" y="-111.8" font-family="Helvetica,sans-Serif" font-size="14.00">class = no</text>
</g>
<!-- 24&#45;&gt;28 -->
<g id="edge28" class="edge">
<title>24&#45;&gt;28</title>
<path fill="none" stroke="black" d="M1747.76,-229.82C1773.87,-215.81 1804.32,-199.46 1831.3,-184.98"/>
<polygon fill="black" stroke="black" points="1833.15,-187.96 1840.3,-180.15 1829.84,-181.79 1833.15,-187.96"/>
</g>
<!-- 26 -->
<g id="node27" class="node">
<title>26</title>
<path fill="#58ace9" stroke="black" d="M1667.5,-68C1667.5,-68 1574.5,-68 1574.5,-68 1568.5,-68 1562.5,-62 1562.5,-56 1562.5,-56 1562.5,-12 1562.5,-12 1562.5,-6 1568.5,0 1574.5,0 1574.5,0 1667.5,0 1667.5,0 1673.5,0 1679.5,-6 1679.5,-12 1679.5,-12 1679.5,-56 1679.5,-56 1679.5,-62 1673.5,-68 1667.5,-68"/>
<text text-anchor="start" x="1585.5" y="-52.8" font-family="Helvetica,sans-Serif" font-size="14.00">gini = 0.232</text>
<text text-anchor="start" x="1576" y="-37.8" font-family="Helvetica,sans-Serif" font-size="14.00">samples = 172</text>
<text text-anchor="start" x="1570.5" y="-22.8" font-family="Helvetica,sans-Serif" font-size="14.00">value = [23, 149]</text>
<text text-anchor="start" x="1587" y="-7.8" font-family="Helvetica,sans-Serif" font-size="14.00">class = yes</text>
</g>
<!-- 25&#45;&gt;26 -->
<g id="edge26" class="edge">
<title>25&#45;&gt;26</title>
<path fill="none" stroke="black" d="M1661.17,-103.73C1656.1,-95.06 1650.75,-85.9 1645.65,-77.18"/>
<polygon fill="black" stroke="black" points="1648.53,-75.17 1640.46,-68.3 1642.49,-78.7 1648.53,-75.17"/>
</g>
<!-- 27 -->
<g id="node28" class="node">
<title>27</title>
<path fill="#a4d2f3" stroke="black" d="M1810.5,-68C1810.5,-68 1709.5,-68 1709.5,-68 1703.5,-68 1697.5,-62 1697.5,-56 1697.5,-56 1697.5,-12 1697.5,-12 1697.5,-6 1703.5,0 1709.5,0 1709.5,0 1810.5,0 1810.5,0 1816.5,0 1822.5,-6 1822.5,-12 1822.5,-12 1822.5,-56 1822.5,-56 1822.5,-62 1816.5,-68 1810.5,-68"/>
<text text-anchor="start" x="1724.5" y="-52.8" font-family="Helvetica,sans-Serif" font-size="14.00">gini = 0.456</text>
<text text-anchor="start" x="1715" y="-37.8" font-family="Helvetica,sans-Serif" font-size="14.00">samples = 640</text>
<text text-anchor="start" x="1705.5" y="-22.8" font-family="Helvetica,sans-Serif" font-size="14.00">value = [225, 415]</text>
<text text-anchor="start" x="1726" y="-7.8" font-family="Helvetica,sans-Serif" font-size="14.00">class = yes</text>
</g>
<!-- 25&#45;&gt;27 -->
<g id="edge27" class="edge">
<title>25&#45;&gt;27</title>
<path fill="none" stroke="black" d="M1712.93,-103.73C1718.99,-94.88 1725.4,-85.51 1731.49,-76.63"/>
<polygon fill="black" stroke="black" points="1734.43,-78.53 1737.19,-68.3 1728.65,-74.57 1734.43,-78.53"/>
</g>
<!-- 29 -->
<g id="node30" class="node">
<title>29</title>
<path fill="#f9e1d0" stroke="black" d="M1953.5,-68C1953.5,-68 1852.5,-68 1852.5,-68 1846.5,-68 1840.5,-62 1840.5,-56 1840.5,-56 1840.5,-12 1840.5,-12 1840.5,-6 1846.5,0 1852.5,0 1852.5,0 1953.5,0 1953.5,0 1959.5,0 1965.5,-6 1965.5,-12 1965.5,-12 1965.5,-56 1965.5,-56 1965.5,-62 1959.5,-68 1953.5,-68"/>
<text text-anchor="start" x="1867.5" y="-52.8" font-family="Helvetica,sans-Serif" font-size="14.00">gini = 0.491</text>
<text text-anchor="start" x="1858" y="-37.8" font-family="Helvetica,sans-Serif" font-size="14.00">samples = 631</text>
<text text-anchor="start" x="1848.5" y="-22.8" font-family="Helvetica,sans-Serif" font-size="14.00">value = [358, 273]</text>
<text text-anchor="start" x="1872" y="-7.8" font-family="Helvetica,sans-Serif" font-size="14.00">class = no</text>
</g>
<!-- 28&#45;&gt;29 -->
<g id="edge29" class="edge">
<title>28&#45;&gt;29</title>
<path fill="none" stroke="black" d="M1903,-103.73C1903,-95.52 1903,-86.86 1903,-78.56"/>
<polygon fill="black" stroke="black" points="1906.5,-78.3 1903,-68.3 1899.5,-78.3 1906.5,-78.3"/>
</g>
<!-- 30 -->
<g id="node31" class="node">
<title>30</title>
<path fill="#eca26d" stroke="black" d="M2088.5,-68C2088.5,-68 1995.5,-68 1995.5,-68 1989.5,-68 1983.5,-62 1983.5,-56 1983.5,-56 1983.5,-12 1983.5,-12 1983.5,-6 1989.5,0 1995.5,0 1995.5,0 2088.5,0 2088.5,0 2094.5,0 2100.5,-6 2100.5,-12 2100.5,-12 2100.5,-56 2100.5,-56 2100.5,-62 2094.5,-68 2088.5,-68"/>
<text text-anchor="start" x="2006.5" y="-52.8" font-family="Helvetica,sans-Serif" font-size="14.00">gini = 0.331</text>
<text text-anchor="start" x="1997" y="-37.8" font-family="Helvetica,sans-Serif" font-size="14.00">samples = 129</text>
<text text-anchor="start" x="1991.5" y="-22.8" font-family="Helvetica,sans-Serif" font-size="14.00">value = [102, 27]</text>
<text text-anchor="start" x="2011" y="-7.8" font-family="Helvetica,sans-Serif" font-size="14.00">class = no</text>
</g>
<!-- 28&#45;&gt;30 -->
<g id="edge30" class="edge">
<title>28&#45;&gt;30</title>
<path fill="none" stroke="black" d="M1954.76,-103.73C1966.8,-94.24 1979.6,-84.16 1991.58,-74.72"/>
<polygon fill="black" stroke="black" points="1994.04,-77.24 1999.73,-68.3 1989.71,-71.74 1994.04,-77.24"/>
</g>
</g>
</svg>
