<svg xmlns="http://www.w3.org/2000/svg" width="100" height="24" viewBox="0 0 100 24">
    <defs>
        <linearGradient id="a" x1="50%" x2="50%" y1="0%" y2="100%">
            <stop offset="0%" stop-color="#FFC462"/>
            <stop offset="100%" stop-color="#FF9233"/>
        </linearGradient>
    </defs>
    <g fill="none" fill-rule="evenodd">
        <path fill="url(#a)" d="M.186 10.345h8.947L7.81 17.49H20.74A10.999 10.999 0 0 1 11 23.371c-6.075 0-11-4.924-11-11 0-.692.064-1.37.186-2.026zM1.2 7.371a11 11 0 0 1 9.801-6c6.075 0 11 4.925 11 11 0 .728-.07 1.44-.206 2.128h-8.311l1.495-7.128H1.199z"/>
        <path fill="#fff" d="M44.077 20.162v-3.58h-6.506L43.966 10V6.584H32.6v3.551h5.948l-6.116 6.366v3.66h11.645zm4.752-8.415c.083-1.01.977-2.295 2.764-2.295 2.01 0 2.737 1.257 2.793 2.295h-5.557zm5.864 3.524c-.391 1.066-1.257 1.776-2.793 1.776-1.647 0-3.071-1.093-3.155-2.622h9.662c.028-.082.084-.71.084-1.284 0-4.372-2.653-6.967-6.954-6.967-3.602 0-6.925 2.787-6.925 7.158 0 4.562 3.407 7.24 7.233 7.24 3.518 0 5.724-1.968 6.395-4.317l-3.547-.984zm9.582-2.895c0-1.366.894-2.377 2.29-2.377 1.536 0 2.262 1.01 2.262 2.35v7.813h4.245v-8.524c0-2.978-1.564-5.41-5.055-5.41-1.424 0-3.127.63-3.881 1.913V6.584H60.03v13.578h4.244v-7.786zm21.172-2.295v10.08h4.245V6.585h-9.355V5.409c0-1.366 1.089-1.694 1.815-1.694.614 0 1.005.082 1.2.137V.464c-.39-.19-1.256-.3-1.954-.3-3.38 0-5.306 2.13-5.306 5.245v1.175h-2.206v3.497h2.206v10.08h4.245v-10.08h5.11zm-.363-7.65c0 1.34 1.117 2.432 2.457 2.432 1.397 0 2.514-1.093 2.514-2.432C90.055 1.065 88.938 0 87.54 0c-1.34 0-2.457 1.065-2.457 2.431zm12.207.192h-3.798V4.37c0 1.257-.698 2.213-2.15 2.213h-.698v3.633h2.457v5.82c0 2.704 1.76 4.37 4.636 4.37 1.34 0 2.039-.3 2.206-.382v-3.442c-.251.054-.67.136-1.117.136-.921 0-1.536-.3-1.536-1.42v-5.082H100V6.584h-2.709V2.623z"/>
    </g>
</svg>
